<svg width="101" height="101" viewBox="0 0 101 101" fill="none" xmlns="http://www.w3.org/2000/svg">
<g clip-path="url(#clip0)">
<path d="M75.5 58.1924C79.7416 58.1924 83.1924 54.7416 83.1924 50.5C83.1924 46.2584 79.7416 42.8076 75.5 42.8076H71.6539V26.1408H75.5C79.7416 26.1408 83.1924 22.69 83.1924 18.4484C83.1924 14.2068 79.7416 10.7564 75.5 10.7564H71.6539V2.42305C71.6539 1.36113 70.793 0.5 69.7309 0.5H31.2691C30.207 0.5 29.3461 1.36113 29.3461 2.42305V10.7563H25.5C21.2584 10.7563 17.8076 14.207 17.8076 18.4488C17.8076 22.6904 21.2584 26.141 25.5 26.141H29.3461V42.8078H25.5C21.2584 42.8078 17.8076 46.2586 17.8076 50.5002C17.8076 54.7418 21.2584 58.1926 25.5 58.1926H29.3461V74.8592H25.5C21.2584 74.8592 17.8076 78.31 17.8076 82.5518C17.8076 86.7934 21.2584 90.2439 25.5 90.2439H29.3461V98.5773C29.3461 99.6393 30.207 100.5 31.2691 100.5H69.7307C70.7928 100.5 71.6537 99.6393 71.6537 98.5773V90.2439H75.5C79.7416 90.2439 83.1924 86.7932 83.1924 82.5516C83.1924 78.31 79.7416 74.8588 75.5 74.8588H71.6539V58.1922H75.5V58.1924ZM25.5 22.2947C23.3793 22.2947 21.6539 20.5693 21.6539 18.4486C21.6539 16.3279 23.3793 14.6025 25.5 14.6025H31.2691C32.3312 14.6025 33.1922 13.7414 33.1922 12.6795V4.34609H67.8076V10.7563H62.0385C60.9764 10.7563 60.1154 11.6174 60.1154 12.6793C60.1154 13.7412 60.9764 14.6023 62.0385 14.6023H69.7309H75.5C77.6207 14.6023 79.3461 16.3279 79.3461 18.4486C79.3461 20.5691 77.6207 22.2945 75.5 22.2945H69.7309C68.6688 22.2945 67.8078 23.1557 67.8078 24.2176V32.5508H33.1924V24.2176C33.1924 23.1557 32.3314 22.2945 31.2693 22.2945H25.5V22.2947ZM75.5 78.7051C77.6207 78.7051 79.3461 80.4307 79.3461 82.5514C79.3461 84.6719 77.6207 86.3973 75.5 86.3973H69.7309C68.6688 86.3973 67.8078 87.2584 67.8078 88.3203V96.6537H33.1924V88.3203C33.1924 87.2584 32.3314 86.3973 31.2693 86.3973H25.5C23.3793 86.3973 21.6539 84.6719 21.6539 82.5512C21.6539 80.4305 23.3793 78.7051 25.5 78.7051H31.2691C32.3312 78.7051 33.1922 77.8439 33.1922 76.782V68.4488H67.8076V76.782C67.8076 77.8439 68.6686 78.7051 69.7307 78.7051H75.5ZM69.7309 54.3461C68.6688 54.3461 67.8078 55.2072 67.8078 56.2691V64.6023H33.1924V56.2691C33.1924 55.2072 32.3314 54.3461 31.2693 54.3461H25.5C23.3793 54.3461 21.6539 52.6207 21.6539 50.5C21.6539 48.3793 23.3793 46.6539 25.5 46.6539H31.2691C32.3312 46.6539 33.1922 45.7928 33.1922 44.7309V36.3975H67.8076V44.7309C67.8076 45.7928 68.6686 46.6539 69.7307 46.6539H75.5C77.6207 46.6539 79.3461 48.3793 79.3461 50.5C79.3461 52.6207 77.6207 54.3461 75.5 54.3461H69.7309Z" fill="black"/>
<path d="M46.654 22.2946H44.731C42.6103 22.2946 40.8849 20.5692 40.8849 18.4485C40.8849 16.3278 42.6103 14.6024 44.731 14.6024H46.654C47.7161 14.6024 48.5771 13.7413 48.5771 12.6794C48.5771 11.6175 47.7161 10.7563 46.654 10.7563H44.731C40.4894 10.7563 37.0386 14.2071 37.0386 18.4487C37.0386 22.6903 40.4894 26.1411 44.731 26.1411H46.654C47.7161 26.1411 48.5771 25.28 48.5771 24.2181C48.5771 23.156 47.7161 22.2946 46.654 22.2946Z" fill="black"/>
<path d="M46.654 54.3459H44.731C42.6103 54.3459 40.8849 52.6205 40.8849 50.4998C40.8849 48.3791 42.6103 46.6537 44.731 46.6537H46.654C47.7161 46.6537 48.5771 45.7926 48.5771 44.7307C48.5771 43.6688 47.7161 42.8076 46.654 42.8076H44.731C40.4894 42.8076 37.0386 46.2584 37.0386 50.5C37.0386 54.7416 40.4894 58.1924 44.731 58.1924H46.654C47.7161 58.1924 48.5771 57.3313 48.5771 56.2693C48.5771 55.207 47.7161 54.3459 46.654 54.3459Z" fill="black"/>
<path d="M46.654 86.3977H44.731C42.6103 86.3977 40.8849 84.6723 40.8849 82.5516C40.8849 80.4309 42.6103 78.7055 44.731 78.7055H46.654C47.7161 78.7055 48.5771 77.8443 48.5771 76.7824C48.5771 75.7205 47.7161 74.8594 46.654 74.8594H44.731C40.4894 74.8594 37.0386 78.3102 37.0386 82.5518C37.0386 86.7934 40.4894 90.2441 44.731 90.2441H46.654C47.7161 90.2441 48.5771 89.383 48.5771 88.3211C48.5771 87.2588 47.7161 86.3977 46.654 86.3977Z" fill="black"/>
<path d="M98.5771 48.5771H88.9616C87.8995 48.5771 87.0386 49.4383 87.0386 50.5002C87.0386 51.5621 87.8995 52.4232 88.9616 52.4232H98.5771C99.6392 52.4232 100.5 51.5621 100.5 50.5002C100.5 49.4383 99.6392 48.5771 98.5771 48.5771Z" fill="black"/>
<path d="M96.0266 31.8961C95.2756 31.1453 94.0579 31.1453 93.3071 31.8961L87.6018 37.6014C86.8508 38.3523 86.8508 39.5701 87.6018 40.3211C87.9774 40.6965 88.4696 40.8844 88.9616 40.8844C89.4538 40.8844 89.9459 40.6965 90.3213 40.3211L96.0266 34.6158C96.7776 33.865 96.7776 32.6473 96.0266 31.8961Z" fill="black"/>
<path d="M96.0267 66.3835L90.3214 60.6782C89.5704 59.9277 88.3527 59.9275 87.6019 60.6782C86.8509 61.4292 86.8507 62.647 87.6019 63.398L93.3072 69.1032C93.6827 69.4786 94.1749 69.6665 94.6669 69.6665C95.1589 69.6665 95.6513 69.4786 96.0267 69.1032C96.7777 68.3525 96.7779 67.1347 96.0267 66.3835Z" fill="black"/>
<path d="M12.0385 48.5771H2.42305C1.36094 48.5771 0.5 49.4383 0.5 50.5002C0.5 51.5621 1.36094 52.4232 2.42305 52.4232H12.0385C13.1006 52.4232 13.9615 51.5621 13.9615 50.5002C13.9615 49.4383 13.1006 48.5771 12.0385 48.5771Z" fill="black"/>
<path d="M13.3981 37.6015L7.69299 31.8964C6.94202 31.1458 5.72424 31.1458 4.97346 31.8964C4.22249 32.6474 4.22229 33.8652 4.97346 34.6162L10.6787 40.3214C11.0541 40.6966 11.5461 40.8845 12.0383 40.8845C12.5305 40.8845 13.0227 40.6966 13.3981 40.3212C14.149 39.5703 14.1492 38.3527 13.3981 37.6015Z" fill="black"/>
<path d="M13.3982 60.6785C12.6472 59.9275 11.4296 59.9275 10.6787 60.6785L4.97339 66.3837C4.22241 67.1347 4.22241 68.3525 4.97339 69.1035C5.34897 69.4789 5.84116 69.6667 6.33315 69.6667C6.82515 69.6667 7.31753 69.4789 7.69292 69.1035L13.3982 63.3982C14.1492 62.6472 14.1492 61.4296 13.3982 60.6785Z" fill="black"/>
<path d="M57.6288 11.3193C57.2712 10.9617 56.7749 10.7559 56.2692 10.7559C55.7636 10.7559 55.2673 10.9615 54.9097 11.3193C54.5521 11.677 54.3462 12.1732 54.3462 12.6789C54.3462 13.1865 54.5521 13.6809 54.9097 14.0383C55.2673 14.398 55.7636 14.6019 56.2692 14.6019C56.7749 14.6019 57.2712 14.3978 57.6288 14.0383C57.9864 13.6809 58.1923 13.1863 58.1923 12.6789C58.1923 12.1732 57.9864 11.6771 57.6288 11.3193Z" fill="black"/>
</g>
<defs>
<clipPath id="clip0">
<rect width="100" height="100" fill="white" transform="translate(0.5 0.5)"/>
</clipPath>
</defs>
</svg>
