<svg width="51" height="50" viewBox="0 0 51 50" fill="none" xmlns="http://www.w3.org/2000/svg">
<path d="M27.0627 14.583C27.0627 13.7201 26.3631 13.0205 25.5002 13.0205C24.6372 13.0205 23.9377 13.7201 23.9377 14.583V24.9997C23.9377 25.5384 24.2152 26.0391 24.672 26.3247L30.922 30.2309C31.6538 30.6883 32.6178 30.4658 33.0752 29.734C33.5325 29.0023 33.3101 28.0383 32.5783 27.5809L27.0627 24.1337V14.583Z" fill="black"/>
<path fill-rule="evenodd" clip-rule="evenodd" d="M25.5002 6.77051C15.4325 6.77051 7.271 14.932 7.271 24.9997C7.271 35.0674 15.4325 43.2288 25.5002 43.2288C35.5679 43.2288 43.7293 35.0674 43.7293 24.9997C43.7293 14.932 35.5679 6.77051 25.5002 6.77051ZM10.396 24.9997C10.396 16.6579 17.1584 9.89551 25.5002 9.89551C33.842 9.89551 40.6043 16.6579 40.6043 24.9997C40.6043 33.3415 33.842 40.1038 25.5002 40.1038C17.1584 40.1038 10.396 33.3415 10.396 24.9997Z" fill="black"/>
</svg>
