<svg width="51" height="50" viewBox="0 0 51 50" fill="none" xmlns="http://www.w3.org/2000/svg">
<path fill-rule="evenodd" clip-rule="evenodd" d="M6.34092 17.4024C5.75728 22.8251 5.7833 29.0793 6.59543 34.48C7.0448 37.4683 9.4837 39.7592 12.4943 40.0209L15.6406 40.2944C22.2011 40.8647 28.7987 40.8647 35.3592 40.2944L38.5056 40.0209C41.5161 39.7592 43.955 37.4683 44.4044 34.48C45.2165 29.0793 45.2426 22.8255 44.6589 17.4028C44.5835 16.7741 44.4986 16.1463 44.4044 15.5195C43.955 12.5312 41.5161 10.2403 38.5055 9.97857L35.3592 9.70506C28.7987 9.13477 22.2011 9.13477 15.6406 9.70506L12.4943 9.97857C9.4837 10.2403 7.0448 12.5312 6.59543 15.5195C6.5012 16.1462 6.41636 16.7739 6.34092 17.4024ZM15.9112 12.8183C22.2916 12.2637 28.7082 12.2637 35.0886 12.8183L38.2349 13.0918C39.8064 13.2284 41.0795 14.4243 41.3141 15.9842C41.3385 16.1462 41.3622 16.3083 41.3852 16.4704L29.7998 22.9068C27.1256 24.3924 23.874 24.3924 21.1999 22.9068L9.61458 16.4705C9.63762 16.3083 9.66132 16.1462 9.68569 15.9842C9.92026 14.4243 11.1934 13.2284 12.7649 13.0918L15.9112 12.8183ZM41.7676 19.8328C42.1717 24.5573 42.0206 29.3174 41.3141 34.0153C41.0795 35.5752 39.8064 36.771 38.2349 36.9076L35.0886 37.1812C28.7082 37.7358 22.2916 37.7358 15.9112 37.1812L12.7649 36.9076C11.1934 36.771 9.92026 35.5752 9.68569 34.0153C8.97925 29.3175 8.82808 24.5574 9.23218 19.8329L19.6822 25.6385C23.3002 27.6485 27.6994 27.6485 31.3174 25.6385L41.7676 19.8328Z" fill="black"/>
</svg>
