<svg width="101" height="101" viewBox="0 0 101 101" fill="none" xmlns="http://www.w3.org/2000/svg">
<g clip-path="url(#clip0)">
<path d="M19.0582 65.5733C19.0168 64.7651 18.3291 64.1399 17.5201 64.1854C16.7123 64.2268 16.0908 64.9153 16.1322 65.7233L16.5141 73.1714C16.6074 74.989 16.3672 76.7876 15.8004 78.5169L9.22559 98.5788C8.97364 99.3478 9.39258 100.175 10.1613 100.427C10.935 100.68 11.759 100.256 12.0096 99.4913L18.5846 79.4292C19.2641 77.356 19.552 75.1999 19.4401 73.021L19.0582 65.5733Z" fill="black"/>
<path d="M91.7986 98.6613L87.2909 81.5651C86.4655 78.4348 87.1823 76.5352 87.5201 71.4017C88.2211 63.8781 85.5778 56.48 80.2676 51.1041L72.1222 42.8576C71.895 37.2834 71.4325 31.7063 70.7319 26.1708C70.4185 23.6935 69.3944 21.4568 67.8835 19.6489L69.1026 17.2802C69.8681 15.7935 69.744 14.0216 68.7794 12.6564C67.798 11.2662 66.0271 10.4507 64.0708 10.8933C63.9056 9.98082 63.4456 9.12711 62.7296 8.48805C60.6199 6.60466 58.2593 7.76481 58.156 7.7738C57.8218 6.87517 57.231 6.07263 56.4269 5.48924C54.9812 4.44022 53.0746 4.25174 51.4513 4.99783L51.2746 5.07908C50.6697 3.12128 48.951 1.70527 46.9113 1.49003C44.4928 1.23281 42.4303 2.75722 41.5805 4.50311C40.1129 2.09882 37.4705 0.5 34.4997 0.5C29.3643 0.5 25.4999 5.11307 26.3214 10.1718C26.4526 10.98 26.5596 11.8078 26.6397 12.6328C26.7177 13.438 27.4331 14.0298 28.2391 13.9492C29.0444 13.871 29.6339 13.155 29.5555 12.3498C29.4694 11.4627 29.3542 10.5718 29.213 9.70231C28.6784 6.40955 31.1862 3.42968 34.4997 3.42968C37.3032 3.42968 39.6553 5.63572 39.8545 8.45212C39.9719 10.1099 40.0369 11.9115 40.0295 13.7097C40.0199 16.0773 41.9258 17.9954 44.2877 17.9954H58.1082C63.0316 17.9954 67.2091 21.6683 67.8255 26.5386C68.9767 35.636 69.4798 44.8473 69.3294 53.9678L62.632 47.7324C60.8468 46.0707 58.0685 45.9705 56.1689 47.4992C54.1709 49.107 53.7408 52.024 55.1904 54.1398L58.8255 59.4466C59.2828 60.1142 60.1941 60.2847 60.8619 59.8273C61.5292 59.3701 61.6997 58.4584 61.2425 57.791L57.6074 52.484C57.0173 51.623 57.1923 50.4361 58.0056 49.7816C58.7787 49.1598 59.9093 49.2004 60.6357 49.8766L71.7153 60.1916C72.311 60.7466 73.238 60.7056 73.7856 60.1175C74.3368 59.5255 74.3038 58.5986 73.7116 58.0472L72.1977 56.6379C72.2927 53.4877 72.3106 50.3248 72.2511 47.1568L78.1833 53.1627C82.8836 57.9213 85.2237 64.4701 84.603 71.1296C84.2924 76.1825 83.4553 78.5102 84.4581 82.3118L88.9658 99.408C89.1713 100.188 89.9707 100.658 90.7557 100.451C91.5379 100.245 92.0051 99.4436 91.7986 98.6613ZM66.4976 15.9396L65.6652 17.5572C64.8419 16.9493 63.9433 16.4408 62.989 16.0433L63.548 14.2173C65.9089 12.7962 67.1419 14.6882 66.4976 15.9396ZM54.7064 7.86052C55.3431 8.32243 55.6554 9.1193 55.5025 9.89078L54.4759 15.066H50.7435C51.2119 12.6197 51.4672 10.3943 51.5146 8.34059C51.6849 8.16813 51.8818 8.02438 52.1027 7.92282C52.3263 7.86813 53.4965 6.9824 54.7064 7.86052ZM42.9592 13.7216C42.9645 12.4144 42.9328 11.0951 42.8678 9.78258L44.1045 6.05467C44.3869 5.2033 45.4123 4.27655 46.6037 4.4035C47.7535 4.52479 48.5209 5.48494 48.5666 6.44529C48.7027 9.29391 48.3221 12.2771 47.7578 15.0658H44.2875C43.5508 15.0658 42.9561 14.4658 42.9592 13.7216ZM57.4626 15.0658C57.8632 13.0824 58.1353 11.6062 58.2097 11.3869C58.4839 10.5779 59.2714 10.5269 59.4919 10.4132C59.9357 10.2613 60.4285 10.3611 60.7785 10.6734C61.1554 11.0101 61.3035 11.54 61.1556 12.0232L60.1718 15.2371C58.788 15.0097 57.8767 15.0781 57.4626 15.0658Z" fill="black"/>
<path d="M73.3552 89.5121C68.3594 84.1137 66.1576 76.5698 67.466 69.3315C67.6924 68.0782 67.4207 66.8095 66.701 65.7591L64.6467 62.7603C64.1897 62.0927 63.2775 61.9222 62.6104 62.3796C61.9428 62.8368 61.7725 63.7486 62.2297 64.4159L64.284 67.4148C64.5652 67.8253 64.6713 68.321 64.5828 68.8105C63.9969 72.0528 64.0391 75.3495 64.6551 78.5268C61.801 81.7213 57.7438 83.5442 53.445 83.5442H51.3641C45.2819 83.5442 39.6163 79.9235 37.5644 73.7792C40.2149 66.5667 39.8761 60.2994 39.9064 59.9382C39.9064 58.8044 40.1108 57.6925 40.5144 56.6332C40.5249 56.6054 40.5347 56.5775 40.5433 56.5492L44.8432 42.8049C45.5688 40.8418 44.9511 38.6659 43.297 37.3764C41.0276 35.6083 37.756 36.2467 36.2929 38.6291L33.5298 42.9992C32.3884 39.045 30.9232 35.0395 29.357 31.4323C28.5076 29.4763 28.3078 27.2729 28.7941 25.2278C28.7988 25.2077 28.8033 25.1876 28.8072 25.1673C29.2666 22.7946 29.5492 20.6083 29.6712 18.4835C29.7175 17.6759 29.1005 16.9835 28.2927 16.9372C27.4851 16.8886 26.7927 17.5079 26.7462 18.3158C26.6324 20.2997 26.3675 22.3493 25.9365 24.5812C25.3138 27.2296 25.574 30.0757 26.6697 32.5991C27.1853 33.7868 27.6746 34.9788 28.1373 36.1729L20.0467 47.0348C17.5631 50.3689 16.1242 54.3252 15.8857 58.4755C15.8395 59.2834 16.4564 59.9757 17.2643 60.022C17.2928 60.0238 17.3213 60.0246 17.3496 60.0246C18.1201 60.0246 18.7658 59.4228 18.8107 58.6439C19.0162 55.0674 20.256 51.658 22.3963 48.785L29.3394 39.4639C30.1331 41.7658 30.8232 44.068 31.4074 46.3565L27.0302 53.2793C26.598 53.9631 26.8017 54.8679 27.4855 55.3002C28.1695 55.733 29.0742 55.5285 29.5066 54.8449L38.7792 40.1791C39.3632 39.2284 40.6323 39.0143 41.496 39.6875C42.1417 40.1909 42.3798 41.0428 42.0884 41.8078C42.0587 41.8858 42.253 41.276 37.7601 55.6338C37.2402 57.0144 36.9767 58.4625 36.9767 59.9384C36.9064 60.3874 37.7816 71.1604 30.1099 81.5069C29.6281 82.1567 29.7642 83.0741 30.414 83.5559C30.6763 83.7504 30.9822 83.8444 31.2853 83.8442C31.5701 83.8442 31.8521 83.7608 32.0939 83.601L30.5697 98.889C30.4894 99.6941 31.0769 100.412 31.882 100.492C32.6865 100.573 33.4046 99.9847 33.4849 99.1797L35.5677 78.2911C35.7097 78.0194 35.8493 77.7465 35.9847 77.4715C39.1357 83.2912 45.1618 86.474 51.3643 86.474H53.4452C57.9475 86.474 62.2283 84.8012 65.5131 81.8178C66.407 84.528 67.7357 87.0965 69.4629 89.4053L71.717 99.358C71.8969 100.153 72.6863 100.641 73.4691 100.463C74.2582 100.284 74.7529 99.4998 74.5742 98.7109L73.5013 93.9738C74.0631 94.491 74.9257 94.4906 75.4865 93.9717C76.0802 93.4223 76.1164 92.4953 75.5668 91.9016L73.3552 89.5121Z" fill="black"/>
<path d="M48.0427 44.9522C48.8516 44.9522 49.5075 44.2966 49.5075 43.4874V38.9544C49.5075 36.2757 48.1708 33.7983 45.9319 32.3274C43.2876 30.5903 39.8706 30.5901 37.2266 32.3265L34.3091 34.2421C33.6327 34.686 33.4444 35.5944 33.8885 36.2706C34.3325 36.9472 35.2407 37.1353 35.9171 36.6911L38.8346 34.7755C40.5018 33.6808 42.6561 33.681 44.3233 34.7761C45.735 35.7034 46.5776 37.2653 46.5776 38.9544V43.4874C46.5778 44.2964 47.2337 44.9522 48.0427 44.9522Z" fill="black"/>
<path d="M54.4635 46.0291C56.0969 44.6293 58.4655 44.3767 60.3574 45.401L61.8721 46.2205C62.584 46.6053 63.4725 46.3408 63.8576 45.6293C64.2426 44.9177 63.9778 44.0289 63.2664 43.6437L61.7518 42.8244C58.801 41.2273 55.1059 41.6211 52.5574 43.8045C50.0026 45.9935 49.0563 49.4644 50.1465 52.6472L51.149 55.5742C51.4114 56.3396 52.2442 56.7472 53.0096 56.4853C53.775 56.223 54.1828 55.3902 53.9207 54.6248L52.918 51.6978C52.2192 49.6576 52.8256 47.4324 54.4635 46.0291Z" fill="black"/>
</g>
<defs>
<clipPath id="clip0">
<rect width="100" height="100" fill="white" transform="translate(0.5 0.5)"/>
</clipPath>
</defs>
</svg>
