<svg>
  <symbol id="foot" width="101" height="101" viewBox="0 0 101 101" fill="none" xmlns="http://www.w3.org/2000/svg">
  <g clip-path="url(#clip0)">
  <path d="M19.0582 65.5733C19.0168 64.7651 18.3291 64.1399 17.5201 64.1854C16.7123 64.2268 16.0908 64.9153 16.1322 65.7233L16.5141 73.1714C16.6074 74.989 16.3672 76.7876 15.8004 78.5169L9.22559 98.5788C8.97364 99.3478 9.39258 100.175 10.1613 100.427C10.935 100.68 11.759 100.256 12.0096 99.4913L18.5846 79.4292C19.2641 77.356 19.552 75.1999 19.4401 73.021L19.0582 65.5733Z" fill="black"/>
  <path d="M91.7986 98.6613L87.2909 81.5651C86.4655 78.4348 87.1823 76.5352 87.5201 71.4017C88.2211 63.8781 85.5778 56.48 80.2676 51.1041L72.1222 42.8576C71.895 37.2834 71.4325 31.7063 70.7319 26.1708C70.4185 23.6935 69.3944 21.4568 67.8835 19.6489L69.1026 17.2802C69.8681 15.7935 69.744 14.0216 68.7794 12.6564C67.798 11.2662 66.0271 10.4507 64.0708 10.8933C63.9056 9.98082 63.4456 9.12711 62.7296 8.48805C60.6199 6.60466 58.2593 7.76481 58.156 7.7738C57.8218 6.87517 57.231 6.07263 56.4269 5.48924C54.9812 4.44022 53.0746 4.25174 51.4513 4.99783L51.2746 5.07908C50.6697 3.12128 48.951 1.70527 46.9113 1.49003C44.4928 1.23281 42.4303 2.75722 41.5805 4.50311C40.1129 2.09882 37.4705 0.5 34.4997 0.5C29.3643 0.5 25.4999 5.11307 26.3214 10.1718C26.4526 10.98 26.5596 11.8078 26.6397 12.6328C26.7177 13.438 27.4331 14.0298 28.2391 13.9492C29.0444 13.871 29.6339 13.155 29.5555 12.3498C29.4694 11.4627 29.3542 10.5718 29.213 9.70231C28.6784 6.40955 31.1862 3.42968 34.4997 3.42968C37.3032 3.42968 39.6553 5.63572 39.8545 8.45212C39.9719 10.1099 40.0369 11.9115 40.0295 13.7097C40.0199 16.0773 41.9258 17.9954 44.2877 17.9954H58.1082C63.0316 17.9954 67.2091 21.6683 67.8255 26.5386C68.9767 35.636 69.4798 44.8473 69.3294 53.9678L62.632 47.7324C60.8468 46.0707 58.0685 45.9705 56.1689 47.4992C54.1709 49.107 53.7408 52.024 55.1904 54.1398L58.8255 59.4466C59.2828 60.1142 60.1941 60.2847 60.8619 59.8273C61.5292 59.3701 61.6997 58.4584 61.2425 57.791L57.6074 52.484C57.0173 51.623 57.1923 50.4361 58.0056 49.7816C58.7787 49.1598 59.9093 49.2004 60.6357 49.8766L71.7153 60.1916C72.311 60.7466 73.238 60.7056 73.7856 60.1175C74.3368 59.5255 74.3038 58.5986 73.7116 58.0472L72.1977 56.6379C72.2927 53.4877 72.3106 50.3248 72.2511 47.1568L78.1833 53.1627C82.8836 57.9213 85.2237 64.4701 84.603 71.1296C84.2924 76.1825 83.4553 78.5102 84.4581 82.3118L88.9658 99.408C89.1713 100.188 89.9707 100.658 90.7557 100.451C91.5379 100.245 92.0051 99.4436 91.7986 98.6613ZM66.4976 15.9396L65.6652 17.5572C64.8419 16.9493 63.9433 16.4408 62.989 16.0433L63.548 14.2173C65.9089 12.7962 67.1419 14.6882 66.4976 15.9396ZM54.7064 7.86052C55.3431 8.32243 55.6554 9.1193 55.5025 9.89078L54.4759 15.066H50.7435C51.2119 12.6197 51.4672 10.3943 51.5146 8.34059C51.6849 8.16813 51.8818 8.02438 52.1027 7.92282C52.3263 7.86813 53.4965 6.9824 54.7064 7.86052ZM42.9592 13.7216C42.9645 12.4144 42.9328 11.0951 42.8678 9.78258L44.1045 6.05467C44.3869 5.2033 45.4123 4.27655 46.6037 4.4035C47.7535 4.52479 48.5209 5.48494 48.5666 6.44529C48.7027 9.29391 48.3221 12.2771 47.7578 15.0658H44.2875C43.5508 15.0658 42.9561 14.4658 42.9592 13.7216ZM57.4626 15.0658C57.8632 13.0824 58.1353 11.6062 58.2097 11.3869C58.4839 10.5779 59.2714 10.5269 59.4919 10.4132C59.9357 10.2613 60.4285 10.3611 60.7785 10.6734C61.1554 11.0101 61.3035 11.54 61.1556 12.0232L60.1718 15.2371C58.788 15.0097 57.8767 15.0781 57.4626 15.0658Z" fill="black"/>
  <path d="M73.3552 89.5121C68.3594 84.1137 66.1576 76.5698 67.466 69.3315C67.6924 68.0782 67.4207 66.8095 66.701 65.7591L64.6467 62.7603C64.1897 62.0927 63.2775 61.9222 62.6104 62.3796C61.9428 62.8368 61.7725 63.7486 62.2297 64.4159L64.284 67.4148C64.5652 67.8253 64.6713 68.321 64.5828 68.8105C63.9969 72.0528 64.0391 75.3495 64.6551 78.5268C61.801 81.7213 57.7438 83.5442 53.445 83.5442H51.3641C45.2819 83.5442 39.6163 79.9235 37.5644 73.7792C40.2149 66.5667 39.8761 60.2994 39.9064 59.9382C39.9064 58.8044 40.1108 57.6925 40.5144 56.6332C40.5249 56.6054 40.5347 56.5775 40.5433 56.5492L44.8432 42.8049C45.5688 40.8418 44.9511 38.6659 43.297 37.3764C41.0276 35.6083 37.756 36.2467 36.2929 38.6291L33.5298 42.9992C32.3884 39.045 30.9232 35.0395 29.357 31.4323C28.5076 29.4763 28.3078 27.2729 28.7941 25.2278C28.7988 25.2077 28.8033 25.1876 28.8072 25.1673C29.2666 22.7946 29.5492 20.6083 29.6712 18.4835C29.7175 17.6759 29.1005 16.9835 28.2927 16.9372C27.4851 16.8886 26.7927 17.5079 26.7462 18.3158C26.6324 20.2997 26.3675 22.3493 25.9365 24.5812C25.3138 27.2296 25.574 30.0757 26.6697 32.5991C27.1853 33.7868 27.6746 34.9788 28.1373 36.1729L20.0467 47.0348C17.5631 50.3689 16.1242 54.3252 15.8857 58.4755C15.8395 59.2834 16.4564 59.9757 17.2643 60.022C17.2928 60.0238 17.3213 60.0246 17.3496 60.0246C18.1201 60.0246 18.7658 59.4228 18.8107 58.6439C19.0162 55.0674 20.256 51.658 22.3963 48.785L29.3394 39.4639C30.1331 41.7658 30.8232 44.068 31.4074 46.3565L27.0302 53.2793C26.598 53.9631 26.8017 54.8679 27.4855 55.3002C28.1695 55.733 29.0742 55.5285 29.5066 54.8449L38.7792 40.1791C39.3632 39.2284 40.6323 39.0143 41.496 39.6875C42.1417 40.1909 42.3798 41.0428 42.0884 41.8078C42.0587 41.8858 42.253 41.276 37.7601 55.6338C37.2402 57.0144 36.9767 58.4625 36.9767 59.9384C36.9064 60.3874 37.7816 71.1604 30.1099 81.5069C29.6281 82.1567 29.7642 83.0741 30.414 83.5559C30.6763 83.7504 30.9822 83.8444 31.2853 83.8442C31.5701 83.8442 31.8521 83.7608 32.0939 83.601L30.5697 98.889C30.4894 99.6941 31.0769 100.412 31.882 100.492C32.6865 100.573 33.4046 99.9847 33.4849 99.1797L35.5677 78.2911C35.7097 78.0194 35.8493 77.7465 35.9847 77.4715C39.1357 83.2912 45.1618 86.474 51.3643 86.474H53.4452C57.9475 86.474 62.2283 84.8012 65.5131 81.8178C66.407 84.528 67.7357 87.0965 69.4629 89.4053L71.717 99.358C71.8969 100.153 72.6863 100.641 73.4691 100.463C74.2582 100.284 74.7529 99.4998 74.5742 98.7109L73.5013 93.9738C74.0631 94.491 74.9257 94.4906 75.4865 93.9717C76.0802 93.4223 76.1164 92.4953 75.5668 91.9016L73.3552 89.5121Z" fill="black"/>
  <path d="M48.0427 44.9522C48.8516 44.9522 49.5075 44.2966 49.5075 43.4874V38.9544C49.5075 36.2757 48.1708 33.7983 45.9319 32.3274C43.2876 30.5903 39.8706 30.5901 37.2266 32.3265L34.3091 34.2421C33.6327 34.686 33.4444 35.5944 33.8885 36.2706C34.3325 36.9472 35.2407 37.1353 35.9171 36.6911L38.8346 34.7755C40.5018 33.6808 42.6561 33.681 44.3233 34.7761C45.735 35.7034 46.5776 37.2653 46.5776 38.9544V43.4874C46.5778 44.2964 47.2337 44.9522 48.0427 44.9522Z" fill="black"/>
  <path d="M54.4635 46.0291C56.0969 44.6293 58.4655 44.3767 60.3574 45.401L61.8721 46.2205C62.584 46.6053 63.4725 46.3408 63.8576 45.6293C64.2426 44.9177 63.9778 44.0289 63.2664 43.6437L61.7518 42.8244C58.801 41.2273 55.1059 41.6211 52.5574 43.8045C50.0026 45.9935 49.0563 49.4644 50.1465 52.6472L51.149 55.5742C51.4114 56.3396 52.2442 56.7472 53.0096 56.4853C53.775 56.223 54.1828 55.3902 53.9207 54.6248L52.918 51.6978C52.2192 49.6576 52.8256 47.4324 54.4635 46.0291Z" fill="black"/>
  </g>
  <defs>
  <clipPath id="clip0">
  <rect width="100" height="100" fill="white" transform="translate(0.5 0.5)"/>
  </clipPath>
  </defs>
  </symbol>

  <symbol id="knee" width="101" height="100" viewBox="0 0 101 100" fill="none" xmlns="http://www.w3.org/2000/svg">
  <g clip-path="url(#clip0)">
  <path d="M95.5 45H75.5C72.7386 45 70.5 47.2386 70.5 50V61.6667C70.5 64.4281 72.7386 66.6667 75.5 66.6667H78.8333V93.3333C78.8333 97.0152 81.8181 100 85.5 100C89.1819 100 92.1667 97.0152 92.1667 93.3333V66.6667H95.5C98.2614 66.6667 100.5 64.4281 100.5 61.6667V50C100.5 47.2386 98.2614 45 95.5 45ZM88.8333 93.3333C88.8333 95.1743 87.3409 96.6667 85.5 96.6667C83.659 96.6667 82.1667 95.1743 82.1667 93.3333V66.6667H88.8333V93.3333ZM97.1667 61.6667C97.1667 62.5871 96.4205 63.3333 95.5 63.3333H75.5C74.5795 63.3333 73.8333 62.5871 73.8333 61.6667V50C73.8333 49.0795 74.5795 48.3333 75.5 48.3333H95.5C96.4205 48.3333 97.1667 49.0795 97.1667 50V61.6667Z" fill="black"/>
  <path d="M56.2816 28.8335L55.0149 27.5768C49.2549 21.7802 39.8716 12.8852 34.8333 8.10182C34.2766 7.57848 32.7266 6.21348 30.7533 4.49515C26.8417 1.08709 21.6668 -0.49945 16.5172 0.130582C11.3676 0.760613 6.72785 3.54794 3.75327 7.79848C-1.78946 15.7525 -0.074333 26.6622 7.6416 32.5318C7.72858 32.6048 7.81926 32.6732 7.91327 32.7368C8.68233 33.2431 9.71618 33.03 10.2224 32.261C10.7287 31.4919 10.5157 30.4581 9.7466 29.9518C9.68931 29.9023 9.62921 29.8561 9.5666 29.8135C3.33031 25.011 1.9723 16.1538 6.48327 9.70348C8.91579 6.23016 12.7082 3.95248 16.9171 3.43696C21.1261 2.92145 25.3561 4.21656 28.5549 7.00015C30.4833 8.68682 31.9999 10.0202 32.5366 10.5252C37.5666 15.2935 46.9266 24.1668 52.6516 29.9268L53.9399 31.2052C56.8066 34.0385 59.7733 36.9585 61.0583 40.6635C62.1848 43.9085 62.4609 47.3881 61.8599 50.7702L60.9033 56.0635C60.2766 58.4685 57.7033 59.2302 55.6666 59.1518C54.7461 59.1155 53.9705 59.8322 53.9341 60.7527C53.8978 61.6731 54.6145 62.4488 55.5349 62.4852C55.6699 62.4852 55.8066 62.4935 55.9433 62.4935C57.298 62.4962 58.6392 62.2253 59.8866 61.6968L53.5666 96.6668H38.0783L36.0616 70.4152C35.6243 65.0299 36.9714 59.6505 39.8949 55.1068L42.9066 50.9768C43.3637 50.2396 43.179 49.2751 42.4818 48.759C41.7847 48.2429 40.8082 48.3478 40.2366 49.0002L38.3366 51.5168C38.2649 51.6135 38.2016 51.7201 38.1283 51.8185L38.1166 51.8085L37.7833 51.5735C32.6433 47.7935 26.3933 42.9068 20.3483 38.1902L16.5983 35.2585C16.1291 34.8876 15.4972 34.7965 14.9424 35.0198C14.3876 35.2431 13.995 35.7465 13.9135 36.339C13.8321 36.9314 14.0743 37.5221 14.5483 37.8868L18.3016 40.8168C24.3649 45.5518 30.6349 50.4502 35.7616 54.2202C35.7883 54.2418 35.9516 54.3602 36.1733 54.5202L36.3066 54.6168C33.5299 59.4904 32.2864 65.0876 32.7383 70.6785L34.7549 96.9285C34.903 98.6657 36.3564 100 38.0999 100H53.5666C55.178 99.9959 56.559 98.8472 56.8566 97.2635L65.1399 51.3602C65.8437 47.4151 65.5223 43.3554 64.2066 39.5702C62.6666 35.1318 59.4199 31.9285 56.2816 28.8335Z" fill="black"/>
  <path d="M68.6666 22.4734C67.7646 22.2936 66.8875 22.8783 66.7066 23.7801L65.5332 29.6667C65.4447 30.0999 65.532 30.5506 65.7758 30.9194C66.0196 31.2882 66.4 31.5451 66.8332 31.6334C66.9429 31.6563 67.0546 31.6675 67.1666 31.6667C67.9581 31.6661 68.6399 31.1089 68.7982 30.3334L69.9782 24.4417C70.067 24.0066 69.9784 23.5541 69.7321 23.1846C69.4859 22.815 69.1023 22.559 68.6666 22.4734Z" fill="black"/>
  <path d="M75.5 41.6665C75.612 41.6673 75.7237 41.6561 75.8333 41.6332L81.7266 40.4549C82.3262 40.3542 82.8233 39.935 83.0239 39.3611C83.2244 38.7872 83.0966 38.1496 82.6903 37.6974C82.284 37.2451 81.6637 37.05 81.0716 37.1882L75.1666 38.3665C74.3275 38.5369 73.754 39.3155 73.8401 40.1674C73.9261 41.0193 74.6437 41.6674 75.5 41.6665Z" fill="black"/>
  <path d="M80.012 29.5115C80.6436 28.8576 80.6346 27.8181 79.9917 27.1752C79.3488 26.5323 78.3093 26.5232 77.6553 27.1549L72.6553 32.1549C72.2221 32.5733 72.0483 33.193 72.2008 33.7757C72.3534 34.3584 72.8084 34.8135 73.3912 34.966C73.9739 35.1186 74.5936 34.9448 75.012 34.5115L80.012 29.5115Z" fill="black"/>
  </g>
  <defs>
  <clipPath id="clip0">
  <rect width="100" height="100" fill="white" transform="translate(0.5)"/>
  </clipPath>
  </defs>
  </symbol>

  <symbol id="probe" width="101" height="100" viewBox="0 0 101 100" fill="none" xmlns="http://www.w3.org/2000/svg">
  <g clip-path="url(#clip0)">
  <path d="M65.3545 60.7043C64.3795 60.7043 63.5087 60.0168 63.3128 59.0251C63.092 57.896 63.8253 56.8001 64.9545 56.5793L82.3753 53.1543C83.242 52.9835 83.6503 52.3876 83.817 52.0501C84.1212 51.4293 84.1087 50.7043 83.7878 50.0668C76.3628 35.3585 65.142 24.1376 50.4378 16.7126C49.7962 16.3918 49.0753 16.3835 48.4545 16.6835C48.1128 16.8501 47.5212 17.2585 47.3503 18.1251L43.9253 35.546C43.7003 36.671 42.6212 37.4085 41.4795 37.1876C40.3462 36.9668 39.6128 35.8668 39.8337 34.7376L43.2587 17.3168C43.6378 15.3918 44.8628 13.796 46.6253 12.9376C48.4337 12.0585 50.5087 12.0751 52.317 12.9918C67.8378 20.8251 79.6753 32.6668 87.5087 48.1876C88.4253 50.0001 88.442 52.071 87.5628 53.8751C86.7045 55.6335 85.1087 56.8626 83.1837 57.2418L65.7628 60.6668C65.6253 60.6918 65.4878 60.7043 65.3545 60.7043Z" fill="black"/>
  <path d="M98.4163 29.1667C97.2663 29.1667 96.333 28.2333 96.333 27.0833C96.333 14.4458 86.0538 4.16667 73.4163 4.16667C72.2663 4.16667 71.333 3.23333 71.333 2.08333C71.333 0.933333 72.2663 0 73.4163 0C88.3497 0 100.5 12.15 100.5 27.0833C100.5 28.2333 99.5663 29.1667 98.4163 29.1667Z" fill="black"/>
  <path d="M85.9163 29.1667C84.7663 29.1667 83.833 28.2333 83.833 27.0833C83.833 21.3417 79.158 16.6667 73.4163 16.6667C72.2663 16.6667 71.333 15.7333 71.333 14.5833C71.333 13.4333 72.2663 12.5 73.4163 12.5C81.458 12.5 87.9997 19.0417 87.9997 27.0833C87.9997 28.2333 87.0663 29.1667 85.9163 29.1667Z" fill="black"/>
  <path d="M19.2502 91.6665C13.5085 91.6665 8.8335 86.9915 8.8335 81.2499C8.8335 79.0707 9.50016 76.9832 10.7627 75.2082L40.1835 33.9332C40.5377 33.4332 41.096 33.1165 41.7085 33.0665C42.321 33.0165 42.921 33.2374 43.3543 33.6707L66.8335 57.1499C67.2668 57.5832 67.4877 58.1874 67.4377 58.7957C67.3877 59.404 67.071 59.9624 66.571 60.3207L25.2918 89.7374C23.5168 90.9999 21.4293 91.6665 19.2502 91.6665ZM42.1502 38.3582L14.1543 77.6249C13.4002 78.6874 13.0002 79.9415 13.0002 81.2499C13.0002 84.6957 15.8043 87.4999 19.2502 87.4999C20.5585 87.4999 21.8127 87.0999 22.8752 86.3457L62.146 58.354L42.1502 38.3582Z" fill="black"/>
  <path d="M2.5834 100C2.05006 100 1.51673 99.7959 1.1084 99.3918C0.295898 98.5793 0.295898 97.2584 1.1084 96.4459L11.5251 86.0293C12.3376 85.2168 13.6584 85.2168 14.4709 86.0293C15.2834 86.8418 15.2834 88.1626 14.4709 88.9751L4.05423 99.3918C3.65006 99.7959 3.11673 100 2.5834 100Z" fill="black"/>
  <path d="M31.7501 62.5001C31.2167 62.5001 30.6834 62.296 30.2751 61.8918L26.1084 57.7251C25.2959 56.9126 25.2959 55.5918 26.1084 54.7793C26.9209 53.9668 28.2417 53.9668 29.0542 54.7793L33.2209 58.946C34.0334 59.7585 34.0334 61.0793 33.2209 61.8918C32.8167 62.296 32.2834 62.5001 31.7501 62.5001Z" fill="black"/>
  </g>
  <defs>
  <clipPath id="clip0">
  <rect width="100" height="100" fill="white" transform="translate(0.5)"/>
  </clipPath>
  </defs>
  </symbol>

  <symbol id="lungs" width="93" height="93" viewBox="0 0 93 93" fill="none" xmlns="http://www.w3.org/2000/svg">
  <g clip-path="url(#clip0)">
  <path d="M3.33214 79.8639C4.04948 79.6686 4.47132 78.9342 4.27339 78.2234C2.49056 71.8131 2.90047 62.0253 5.52628 48.3006C7.25156 39.2827 10.0311 31.4799 13.7884 25.1085C16.4886 20.5297 19.6212 16.7853 23.0998 13.9783C25.3136 12.1912 28.449 12.162 30.7246 13.9081C32.4295 15.2157 33.3055 17.2731 33.0668 19.4103C32.5769 23.8106 32.7826 30.2251 36.3875 36.2686C35.899 36.8647 35.3529 37.5074 34.7437 38.196C34.7423 38.1974 34.7409 38.1994 34.7395 38.2008C33.422 39.7002 32.0231 41.1204 30.6039 42.5254C30.2564 42.8693 26.1391 46.7873 26.0373 46.6866C25.0553 45.7027 23.9084 44.4507 22.7769 42.9805C22.7931 41.7131 22.918 37.9271 23.7989 35.4077C24.0425 34.7115 23.6691 33.9514 22.9658 33.711C22.2624 33.4699 21.4953 33.8388 21.2517 34.535C20.7477 35.9754 20.46 37.7068 20.2957 39.2583C19.3587 37.6012 18.5564 35.7891 18.0377 33.8631C17.8454 33.1516 17.107 32.7278 16.3882 32.9182C15.6688 33.1079 15.2413 33.8388 15.4329 34.551C16.1166 37.0898 17.234 39.4362 18.5115 41.5193C16.7511 41.3483 14.5429 41.3928 12.5243 42.1884C11.8329 42.4607 11.4953 43.2368 11.7711 43.9212C12.0406 44.5931 12.8436 44.935 13.5217 44.6675C16.1938 43.6141 19.5229 44.3096 20.6333 44.5931C21.7887 46.0953 22.9545 47.3821 23.9688 48.4104C23.4571 48.8266 22.9587 49.2636 22.4751 49.7222C20.5196 51.5774 18.8 53.7765 17.3281 56.3021C15.4414 54.7395 13.0577 52.3319 12.1403 49.5645C11.908 48.8648 11.1464 48.4834 10.4389 48.7134C9.73208 48.9433 9.34674 49.6972 9.57907 50.3969C9.96512 51.5607 10.5407 52.6557 11.2264 53.6722C10.0627 53.8355 8.65958 54.1614 7.28385 54.8027C6.61002 55.1161 6.32084 55.9109 6.6381 56.5772C6.94974 57.2338 7.76816 57.5257 8.43146 57.2165C10.321 56.3368 12.3382 56.1993 13.2641 56.1868C14.1737 57.1442 15.1367 57.9919 16.0499 58.7166C15.4631 59.9269 14.9234 61.1978 14.4376 62.5339C13.78 64.3418 13.2697 66.1115 12.8731 67.7755C12.4288 67.6435 11.962 67.5199 11.4784 67.4108C11.0952 66.7347 10.4031 65.3256 10.248 63.7255C10.1771 62.9925 9.51941 62.454 8.7782 62.5248C8.03699 62.595 7.49372 63.2467 7.56461 63.9798C7.6734 65.1047 7.97382 66.1379 8.30722 66.9925C7.38141 66.9654 6.44578 67.0293 5.53541 67.2287C4.80824 67.3885 4.3499 68.1007 4.51063 68.8198C4.67207 69.5397 5.39152 69.9934 6.11799 69.8343C8.16123 69.3861 10.4719 69.8238 12.3214 70.3985C12.0062 72.1119 11.8104 73.6453 11.6918 74.896C11.5058 76.8442 12.9833 78.6785 14.969 78.8342C16.7146 78.9711 18.4006 77.7336 18.7656 76.0355C18.8737 75.5331 19.014 74.9335 19.1909 74.2568C20.6242 75.5248 22.233 77.298 22.8949 79.2928C23.123 79.982 23.9007 80.3704 24.5956 80.1446C25.3031 79.9146 25.6877 79.1607 25.4554 78.4604C25.1648 77.5849 24.7486 76.756 24.253 75.9785C25.1641 75.827 26.2128 75.5554 27.2431 75.0752C27.917 74.7619 28.2055 73.967 27.8889 73.3C27.5716 72.633 26.7687 72.3474 26.0955 72.6608C24.6279 73.3452 23.0591 73.4751 22.273 73.4932C21.5353 72.7247 20.7597 72.0424 20.022 71.456C21.1885 67.9367 23.1461 63.4635 26.3293 59.442C26.7511 60.0791 27.2333 60.7447 27.778 61.4187C27.5913 62.9271 27.2572 66.9181 28.4195 70.1094C28.668 70.7917 29.4569 71.1572 30.1448 70.9119C30.8446 70.6618 31.2082 69.8975 30.9555 69.2048C30.3694 67.5949 30.2536 65.655 30.288 64.0923C31.2763 64.9956 32.393 65.8606 33.6543 66.6319C34.2685 67.0071 35.1192 66.823 35.5095 66.1969C35.9004 65.5702 35.7039 64.7482 35.0701 64.3612C31.755 62.3352 29.5391 59.5531 28.1669 57.3276C28.7396 56.728 29.3411 56.1444 29.9799 55.5851C33.408 52.5828 36.2507 50.5782 38.5347 48.967C38.7487 48.8162 38.9572 48.6689 39.1629 48.523C39.8704 51.9012 40.7463 57.5173 40.7463 67.5761C40.7463 77.0395 39.4787 82.5118 36.6374 85.3203C33.4978 88.424 28.1261 88.4156 20.6923 88.4052C15.2118 88.4052 9.41903 87.6923 6.21696 82.7217C5.81687 82.1005 4.98371 81.9178 4.35621 82.3138C3.72871 82.7098 3.54411 83.5353 3.9442 84.1564C6.94202 88.8096 11.9719 91.0719 19.3208 91.0719C20.2108 91.0719 21.1008 91.0747 21.9908 91.0747C29.4022 91.0747 34.8258 90.8815 38.5424 87.2088C41.9305 83.8591 43.4424 77.8045 43.4424 67.5761C43.4424 55.97 42.294 50.0933 41.5381 46.7769C43.0023 45.6263 44.1337 44.5132 44.9164 43.1243C45.2238 42.5795 45.7923 42.2412 46.4002 42.2412H46.5897C47.1982 42.2412 47.7668 42.5795 48.0735 43.1243C48.8561 44.5132 49.9876 45.6263 51.4518 46.7769C50.6965 50.0933 49.5482 55.97 49.5482 67.5761C49.5482 77.8045 51.0594 83.8591 54.4482 87.2088C58.1641 90.8822 63.587 91.0747 70.9991 91.0747C71.8891 91.0747 72.7791 91.0719 73.6691 91.0719C80.2249 91.0719 84.903 89.2904 87.9697 85.6253C90.6158 82.4639 92.0709 77.9226 92.4176 71.7415C92.7658 65.5605 92.0112 57.7299 90.1119 47.8038C88.2953 38.3078 85.3319 30.0931 81.3051 23.3874C80.9247 22.7538 80.0971 22.546 79.4577 22.9226C78.8175 23.2992 78.6077 24.1177 78.9874 24.7513C82.8542 31.1888 85.7053 39.1117 87.4636 48.2999C91.0489 67.0397 90.5499 78.3596 85.8941 83.9237C82.5503 87.9189 77.18 88.3976 72.2983 88.4052C64.8644 88.4156 59.4921 88.424 56.3525 85.3203C53.5112 82.5118 52.2442 77.0395 52.2442 67.5761C52.2442 57.5173 53.1202 51.9012 53.8277 48.523C54.0334 48.6689 54.2418 48.8162 54.4559 48.967C57.4039 51.0465 60.2971 53.2088 63.01 55.5851C63.6487 56.1444 64.251 56.728 64.823 57.3276C63.4515 59.5524 61.2356 62.3352 57.9198 64.3612C57.2867 64.7482 57.0902 65.5702 57.4811 66.1969C57.8665 66.8153 58.7115 67.0133 59.3355 66.6319C60.5983 65.8606 61.715 64.9942 62.7047 64.0903C62.7391 65.6501 62.6232 67.5886 62.0351 69.2041C61.7248 70.0559 62.3895 70.9911 63.3027 70.9911C63.8551 70.9911 64.3724 70.6528 64.571 70.1094C65.7327 66.9181 65.3993 62.9271 65.2126 61.4187C65.7572 60.744 66.2395 60.0784 66.6606 59.442C69.8444 63.4635 71.802 67.9367 72.9686 71.456C72.2309 72.0424 71.4553 72.7247 70.7176 73.4932C69.9315 73.4751 68.3634 73.3452 66.895 72.6608C66.2212 72.3474 65.4189 72.6337 65.1017 73.3C64.7851 73.967 65.0736 74.7619 65.7474 75.0752C66.7778 75.5554 67.8272 75.827 68.7375 75.9785C68.242 76.756 67.8258 77.5849 67.5352 78.4604C67.3028 79.1607 67.6875 79.9146 68.395 80.1446C69.0794 80.3669 69.8641 79.9917 70.0957 79.2928C70.7576 77.298 72.3664 75.5248 73.7996 74.2568C73.9765 74.9335 74.1169 75.5331 74.225 76.0355C74.225 76.0376 74.2257 76.0389 74.2264 76.041C74.5914 77.7287 76.283 78.9697 78.0216 78.8342C80.102 78.6716 81.4792 76.7171 81.2833 74.7445C81.1633 73.5216 80.9717 72.0445 80.6692 70.3985C82.518 69.8238 84.8293 69.3861 86.8726 69.8343C87.5991 69.9934 88.3185 69.539 88.4792 68.8198C88.6407 68.1007 88.1816 67.3885 87.4552 67.2287C86.5448 67.0293 85.6092 66.9654 84.6833 66.9925C85.0167 66.1379 85.3172 65.1047 85.426 63.9798C85.4968 63.2467 84.9536 62.595 84.2124 62.5248C83.4705 62.454 82.8135 62.9925 82.7426 63.7255C82.5875 65.3291 81.8968 66.734 81.5122 67.4108C81.0285 67.5199 80.5618 67.6435 80.1175 67.7748C79.7209 66.1115 79.2106 64.3411 78.5529 62.5339C78.4301 62.1962 76.8936 58.7534 76.9407 58.7166C77.8545 57.9912 78.8175 57.1428 79.7279 56.1854C80.6481 56.1944 82.6527 56.3292 84.5591 57.2165C85.2105 57.5201 86.0359 57.2436 86.3525 56.5772C86.669 55.9109 86.3805 55.1161 85.7067 54.802C84.331 54.1614 82.9279 53.8355 81.7641 53.6722C82.4499 52.6557 83.0255 51.5607 83.4108 50.3969C83.6431 49.6972 83.2585 48.9433 82.551 48.7134C81.8441 48.4834 81.0826 48.8641 80.8503 49.5645C79.9322 52.3319 77.5492 54.7395 75.6618 56.3028C73.8263 53.1518 71.6048 50.5108 69.0211 48.4104C70.036 47.3821 71.2026 46.0946 72.3579 44.5917C73.4669 44.3055 76.7806 43.6079 79.4689 44.6675C80.1512 44.9364 80.9478 44.5973 81.2195 43.9212C81.4946 43.2368 81.1577 42.4607 80.4656 42.1884C78.4469 41.3928 76.2395 41.3483 74.4791 41.5193C75.7565 39.4369 76.8733 37.0898 77.5576 34.551C77.7493 33.8395 77.3218 33.1079 76.6023 32.9182C75.8836 32.7285 75.1445 33.1516 74.9529 33.8638C74.4342 35.7891 73.6319 37.6019 72.6948 39.2583C72.5306 37.7068 72.2428 35.9754 71.7389 34.535C71.4953 33.8388 70.7281 33.4699 70.0241 33.711C69.3208 33.9521 68.9481 34.7115 69.1917 35.4084C70.0725 37.9278 70.1968 41.7131 70.2136 42.9805C69.0822 44.4507 67.9352 45.7027 66.9526 46.6873C66.9224 46.6609 66.8908 46.6345 66.8606 46.6088C64.2559 44.3798 61.901 41.9507 59.4717 39.5453C58.3508 38.3398 57.3997 37.2399 56.603 36.2693C60.208 30.2244 60.4137 23.8106 59.923 19.4103C59.6851 17.2731 60.5611 15.2157 62.266 13.9081C64.5415 12.162 67.6762 12.1912 69.8907 13.9783C72.1277 15.7834 74.2531 18.0158 76.2086 20.6137C76.6529 21.2043 77.4973 21.3266 78.0939 20.8861C78.6912 20.4463 78.8147 19.6104 78.3697 19.0191C76.2823 16.2461 74.0025 13.8539 71.5943 11.9098C68.402 9.33415 63.8874 9.28829 60.6144 11.7987C58.162 13.6802 56.902 16.6352 57.2439 19.7028C57.6629 23.4625 57.5281 28.8313 54.8104 33.9694C54.7079 33.8305 54.6089 33.695 54.5177 33.5678C53.7638 32.5187 53.3652 31.2875 53.3652 30.0069V5.5231C53.3652 3.5005 51.7024 1.85449 49.6591 1.85449H43.3322C41.2889 1.85449 39.6261 3.5005 39.6261 5.5231V30.0069C39.6261 31.2875 39.2274 32.5187 38.4736 33.5678C38.3823 33.695 38.2834 33.8305 38.1809 33.9694C35.4638 28.8313 35.3284 23.4625 35.7474 19.7028C36.0892 16.6352 34.8293 13.6802 32.3769 11.7987C29.1039 9.28829 24.5893 9.33415 21.3977 11.9098C17.6678 14.9198 14.3253 18.9073 11.4616 23.7633C7.54846 30.3981 4.66084 38.4864 2.87871 47.8038C0.173575 61.9377 -0.21949 72.1202 1.67494 78.9321C1.87218 79.6422 2.61409 80.0598 3.33214 79.8639ZM40.6691 35.1145C41.7501 33.6116 42.3207 31.8454 42.3207 30.0069V5.5231C42.3207 4.97142 42.7741 4.52327 43.3315 4.52327H49.6584C50.2157 4.52327 50.6691 4.97142 50.6691 5.5231V30.0069C50.6691 31.8454 51.2398 33.6116 52.32 35.1145C54.5998 38.2863 57.2369 41.2066 60.015 43.956C62.8254 46.738 66.0275 49.0955 68.8618 51.8539C76.3054 59.1001 78.1564 70.37 78.6119 75.1204C78.6126 75.1287 78.6133 75.1378 78.614 75.1461C78.6603 75.6304 78.315 76.1334 77.8068 76.1737C77.7977 76.1744 77.7886 76.173 77.7794 76.1737C77.345 76.1946 76.9512 75.9021 76.8606 75.4803C76.5743 74.147 76.2675 72.7719 75.8036 71.4865C73.9021 66.2893 71.7957 61.3881 68.1971 57.0789C64.7739 52.9802 60.3631 49.8577 56.0191 46.7936C54.046 45.4012 51.642 43.9803 50.427 41.825C48.7621 38.8692 44.2299 38.8644 42.5622 41.8243C41.3451 43.9845 38.9509 45.3956 36.9701 46.7936C34.6349 48.4403 31.729 50.4907 28.1942 53.5861C23.2402 57.9245 19.8514 63.7922 17.7001 69.9274C17.0635 71.7429 16.5335 73.6002 16.1292 75.4803C16.0366 75.9111 15.6302 76.2092 15.1824 76.1737C14.6728 76.1334 14.3288 75.629 14.3752 75.1461C14.5528 73.2812 14.9472 70.3985 15.8141 67.146C16.8838 63.1335 18.4841 59.2148 20.8474 55.7713C22.1782 53.832 23.7765 52.0165 25.6955 50.4587C28.2146 48.4146 30.6418 46.2572 32.9489 43.981C35.739 41.2288 38.3837 38.2939 40.6691 35.1145Z" fill="black"/>
  </g>
  <defs>
  <clipPath id="clip0">
  <rect width="92" height="91.0707" fill="white" transform="translate(0.5 0.964844)"/>
  </clipPath>
  </defs>
  </symbol>

  <symbol id="chiropractic" width="101" height="101" viewBox="0 0 101 101" fill="none" xmlns="http://www.w3.org/2000/svg">
  <g clip-path="url(#clip0)">
  <path d="M75.5 58.1924C79.7416 58.1924 83.1924 54.7416 83.1924 50.5C83.1924 46.2584 79.7416 42.8076 75.5 42.8076H71.6539V26.1408H75.5C79.7416 26.1408 83.1924 22.69 83.1924 18.4484C83.1924 14.2068 79.7416 10.7564 75.5 10.7564H71.6539V2.42305C71.6539 1.36113 70.793 0.5 69.7309 0.5H31.2691C30.207 0.5 29.3461 1.36113 29.3461 2.42305V10.7563H25.5C21.2584 10.7563 17.8076 14.207 17.8076 18.4488C17.8076 22.6904 21.2584 26.141 25.5 26.141H29.3461V42.8078H25.5C21.2584 42.8078 17.8076 46.2586 17.8076 50.5002C17.8076 54.7418 21.2584 58.1926 25.5 58.1926H29.3461V74.8592H25.5C21.2584 74.8592 17.8076 78.31 17.8076 82.5518C17.8076 86.7934 21.2584 90.2439 25.5 90.2439H29.3461V98.5773C29.3461 99.6393 30.207 100.5 31.2691 100.5H69.7307C70.7928 100.5 71.6537 99.6393 71.6537 98.5773V90.2439H75.5C79.7416 90.2439 83.1924 86.7932 83.1924 82.5516C83.1924 78.31 79.7416 74.8588 75.5 74.8588H71.6539V58.1922H75.5V58.1924ZM25.5 22.2947C23.3793 22.2947 21.6539 20.5693 21.6539 18.4486C21.6539 16.3279 23.3793 14.6025 25.5 14.6025H31.2691C32.3312 14.6025 33.1922 13.7414 33.1922 12.6795V4.34609H67.8076V10.7563H62.0385C60.9764 10.7563 60.1154 11.6174 60.1154 12.6793C60.1154 13.7412 60.9764 14.6023 62.0385 14.6023H69.7309H75.5C77.6207 14.6023 79.3461 16.3279 79.3461 18.4486C79.3461 20.5691 77.6207 22.2945 75.5 22.2945H69.7309C68.6688 22.2945 67.8078 23.1557 67.8078 24.2176V32.5508H33.1924V24.2176C33.1924 23.1557 32.3314 22.2945 31.2693 22.2945H25.5V22.2947ZM75.5 78.7051C77.6207 78.7051 79.3461 80.4307 79.3461 82.5514C79.3461 84.6719 77.6207 86.3973 75.5 86.3973H69.7309C68.6688 86.3973 67.8078 87.2584 67.8078 88.3203V96.6537H33.1924V88.3203C33.1924 87.2584 32.3314 86.3973 31.2693 86.3973H25.5C23.3793 86.3973 21.6539 84.6719 21.6539 82.5512C21.6539 80.4305 23.3793 78.7051 25.5 78.7051H31.2691C32.3312 78.7051 33.1922 77.8439 33.1922 76.782V68.4488H67.8076V76.782C67.8076 77.8439 68.6686 78.7051 69.7307 78.7051H75.5ZM69.7309 54.3461C68.6688 54.3461 67.8078 55.2072 67.8078 56.2691V64.6023H33.1924V56.2691C33.1924 55.2072 32.3314 54.3461 31.2693 54.3461H25.5C23.3793 54.3461 21.6539 52.6207 21.6539 50.5C21.6539 48.3793 23.3793 46.6539 25.5 46.6539H31.2691C32.3312 46.6539 33.1922 45.7928 33.1922 44.7309V36.3975H67.8076V44.7309C67.8076 45.7928 68.6686 46.6539 69.7307 46.6539H75.5C77.6207 46.6539 79.3461 48.3793 79.3461 50.5C79.3461 52.6207 77.6207 54.3461 75.5 54.3461H69.7309Z" fill="black"/>
  <path d="M46.654 22.2946H44.731C42.6103 22.2946 40.8849 20.5692 40.8849 18.4485C40.8849 16.3278 42.6103 14.6024 44.731 14.6024H46.654C47.7161 14.6024 48.5771 13.7413 48.5771 12.6794C48.5771 11.6175 47.7161 10.7563 46.654 10.7563H44.731C40.4894 10.7563 37.0386 14.2071 37.0386 18.4487C37.0386 22.6903 40.4894 26.1411 44.731 26.1411H46.654C47.7161 26.1411 48.5771 25.28 48.5771 24.2181C48.5771 23.156 47.7161 22.2946 46.654 22.2946Z" fill="black"/>
  <path d="M46.654 54.3459H44.731C42.6103 54.3459 40.8849 52.6205 40.8849 50.4998C40.8849 48.3791 42.6103 46.6537 44.731 46.6537H46.654C47.7161 46.6537 48.5771 45.7926 48.5771 44.7307C48.5771 43.6688 47.7161 42.8076 46.654 42.8076H44.731C40.4894 42.8076 37.0386 46.2584 37.0386 50.5C37.0386 54.7416 40.4894 58.1924 44.731 58.1924H46.654C47.7161 58.1924 48.5771 57.3313 48.5771 56.2693C48.5771 55.207 47.7161 54.3459 46.654 54.3459Z" fill="black"/>
  <path d="M46.654 86.3977H44.731C42.6103 86.3977 40.8849 84.6723 40.8849 82.5516C40.8849 80.4309 42.6103 78.7055 44.731 78.7055H46.654C47.7161 78.7055 48.5771 77.8443 48.5771 76.7824C48.5771 75.7205 47.7161 74.8594 46.654 74.8594H44.731C40.4894 74.8594 37.0386 78.3102 37.0386 82.5518C37.0386 86.7934 40.4894 90.2441 44.731 90.2441H46.654C47.7161 90.2441 48.5771 89.383 48.5771 88.3211C48.5771 87.2588 47.7161 86.3977 46.654 86.3977Z" fill="black"/>
  <path d="M98.5771 48.5771H88.9616C87.8995 48.5771 87.0386 49.4383 87.0386 50.5002C87.0386 51.5621 87.8995 52.4232 88.9616 52.4232H98.5771C99.6392 52.4232 100.5 51.5621 100.5 50.5002C100.5 49.4383 99.6392 48.5771 98.5771 48.5771Z" fill="black"/>
  <path d="M96.0266 31.8961C95.2756 31.1453 94.0579 31.1453 93.3071 31.8961L87.6018 37.6014C86.8508 38.3523 86.8508 39.5701 87.6018 40.3211C87.9774 40.6965 88.4696 40.8844 88.9616 40.8844C89.4538 40.8844 89.9459 40.6965 90.3213 40.3211L96.0266 34.6158C96.7776 33.865 96.7776 32.6473 96.0266 31.8961Z" fill="black"/>
  <path d="M96.0267 66.3835L90.3214 60.6782C89.5704 59.9277 88.3527 59.9275 87.6019 60.6782C86.8509 61.4292 86.8507 62.647 87.6019 63.398L93.3072 69.1032C93.6827 69.4786 94.1749 69.6665 94.6669 69.6665C95.1589 69.6665 95.6513 69.4786 96.0267 69.1032C96.7777 68.3525 96.7779 67.1347 96.0267 66.3835Z" fill="black"/>
  <path d="M12.0385 48.5771H2.42305C1.36094 48.5771 0.5 49.4383 0.5 50.5002C0.5 51.5621 1.36094 52.4232 2.42305 52.4232H12.0385C13.1006 52.4232 13.9615 51.5621 13.9615 50.5002C13.9615 49.4383 13.1006 48.5771 12.0385 48.5771Z" fill="black"/>
  <path d="M13.3981 37.6015L7.69299 31.8964C6.94202 31.1458 5.72424 31.1458 4.97346 31.8964C4.22249 32.6474 4.22229 33.8652 4.97346 34.6162L10.6787 40.3214C11.0541 40.6966 11.5461 40.8845 12.0383 40.8845C12.5305 40.8845 13.0227 40.6966 13.3981 40.3212C14.149 39.5703 14.1492 38.3527 13.3981 37.6015Z" fill="black"/>
  <path d="M13.3982 60.6785C12.6472 59.9275 11.4296 59.9275 10.6787 60.6785L4.97339 66.3837C4.22241 67.1347 4.22241 68.3525 4.97339 69.1035C5.34897 69.4789 5.84116 69.6667 6.33315 69.6667C6.82515 69.6667 7.31753 69.4789 7.69292 69.1035L13.3982 63.3982C14.1492 62.6472 14.1492 61.4296 13.3982 60.6785Z" fill="black"/>
  <path d="M57.6288 11.3193C57.2712 10.9617 56.7749 10.7559 56.2692 10.7559C55.7636 10.7559 55.2673 10.9615 54.9097 11.3193C54.5521 11.677 54.3462 12.1732 54.3462 12.6789C54.3462 13.1865 54.5521 13.6809 54.9097 14.0383C55.2673 14.398 55.7636 14.6019 56.2692 14.6019C56.7749 14.6019 57.2712 14.3978 57.6288 14.0383C57.9864 13.6809 58.1923 13.1863 58.1923 12.6789C58.1923 12.1732 57.9864 11.6771 57.6288 11.3193Z" fill="black"/>
  </g>
  <defs>
  <clipPath id="clip0">
  <rect width="100" height="100" fill="white" transform="translate(0.5 0.5)"/>
  </clipPath>
  </defs>
  </symbol>

  <symbol id="microscope" width="101" height="100" viewBox="0 0 101 100" fill="none" xmlns="http://www.w3.org/2000/svg">
  <g clip-path="url(#clip0)">
  <path d="M81.7499 84.375H75.3042V80.7617C75.3042 76.9795 73.9087 73.3676 71.419 70.5744C71.7329 70.2899 72.0409 69.9965 72.3427 69.6947C77.1491 64.8881 79.7963 58.518 79.7963 51.7579C79.7963 48.3776 79.1372 45.0979 77.8378 42.0001C77.9883 41.32 78.07 40.6143 78.07 39.8897C78.07 36.986 76.7948 34.3761 74.7766 32.5856L75.3669 31.5632C76.6399 29.3581 76.3112 26.6616 74.7458 24.8269L77.129 20.6989C77.4657 20.698 77.8048 20.6536 78.1391 20.564C79.1483 20.2937 79.9909 19.648 80.5114 18.7462L83.4411 13.6718C83.9805 12.7376 83.6604 11.5431 82.7262 11.0038L64.1202 0.261675C63.6716 0.00249606 63.138 -0.0674257 62.6382 0.0665584C62.1376 0.200738 61.7112 0.527886 61.4522 0.976518L58.5226 6.05092C57.8017 7.29975 57.854 8.78373 58.5251 9.95267L56.1403 14.0829C55.2929 13.9261 54.413 13.9589 53.554 14.1892C52.0392 14.595 50.7751 15.563 49.9949 16.9146L39.2527 35.5208C38.4722 36.8723 38.266 38.4509 38.6718 39.9657C38.9021 40.8251 39.3136 41.6034 39.873 42.2589L37.7527 45.9313C37.232 46.8331 37.0943 47.8856 37.3648 48.895C37.6353 49.9042 38.2808 50.7467 39.1826 51.2672L51.0228 58.1032C51.6364 58.4575 52.307 58.6258 52.9693 58.6258C54.3202 58.6258 55.636 57.9252 56.3587 56.6735L58.4798 52.9995C58.8265 53.0635 59.1784 53.0979 59.5325 53.0979C60.0433 53.0979 60.5581 53.0307 61.0655 52.8946C62.5804 52.4887 63.8444 51.5208 64.6247 50.1692L65.2128 49.1506C66.0665 49.4364 66.9718 49.6077 67.9114 49.6452C68.021 50.3422 68.0776 51.0487 68.0776 51.7581C68.0776 55.3887 66.6495 58.8161 64.0567 61.409C61.464 64.002 58.0364 65.4297 54.4058 65.4297H47.5695C46.491 65.4297 45.6163 66.3041 45.6163 67.3828C45.6163 68.4615 46.491 69.336 47.5695 69.336H54.4058C55.4827 69.336 56.3589 70.2121 56.3589 71.2891C56.3589 72.366 55.4827 73.2422 54.4058 73.2422H23.1566C22.0797 73.2422 21.2035 72.366 21.2035 71.2891C21.2035 70.2121 22.0797 69.336 23.1566 69.336H29.9914C31.0699 69.336 31.9445 68.4615 31.9445 67.3828C31.9445 66.3041 31.0699 65.4297 29.9914 65.4297H23.1566C19.9258 65.4297 17.2973 68.0582 17.2973 71.2891C17.2973 74.5199 19.9258 77.1484 23.1566 77.1484H28.0945V84.375H19.25C16.0191 84.375 13.3906 87.0035 13.3906 90.2344V98.0468C13.3906 99.1255 14.2652 99.9999 15.3437 99.9999H85.6561C86.7346 99.9999 87.6092 99.1255 87.6092 98.0468V90.2344C87.6092 87.0035 84.9807 84.375 81.7499 84.375ZM71.3979 80.7617V84.375H67.4917V80.7617C67.4917 78.423 66.4183 76.3307 64.7386 74.9504C65.9806 74.3938 67.1784 73.7346 68.3231 72.9783C70.2899 75.0863 71.3979 77.8568 71.3979 80.7617ZM54.4058 77.1484H59.9722C61.9646 77.1484 63.5854 78.7693 63.5854 80.7617V84.375H49.5786V77.1484H54.4058ZM68.3044 45.7489C65.0735 45.7489 62.445 43.1204 62.445 39.8895C62.445 36.6587 65.0735 34.0302 68.3044 34.0302C71.5352 34.0302 74.1637 36.6587 74.1637 39.8895C74.1637 43.1204 71.5352 45.7489 68.3044 45.7489ZM59.6903 15.7466L61.6437 12.3634L73.4841 19.1993L71.5307 22.5825L59.6903 15.7466ZM63.8585 4.62104L79.0815 13.4101L77.1286 16.7929L61.9054 8.00385L63.8585 4.62104ZM41.1357 47.8844L43.089 44.5014L54.9292 51.3374L52.9761 54.7204L41.1357 47.8844ZM61.2419 48.2161C60.9833 48.6641 60.5616 48.9856 60.0546 49.1215C59.548 49.2573 59.0222 49.1897 58.5739 48.9309L43.3525 40.1428C43.3519 40.1425 43.3515 40.1421 43.3509 40.1419C43.3507 40.1417 43.3503 40.1417 43.3499 40.1415C42.9023 39.8827 42.581 39.4614 42.4453 38.9548C42.3095 38.4479 42.3771 37.922 42.6359 37.4739L53.378 18.8677C53.6366 18.4196 54.0583 18.0982 54.5653 17.9622C55.0718 17.8265 55.5978 17.8941 56.046 18.1529L71.2692 26.9419C72.2016 27.4804 72.5225 28.6772 71.9841 29.6099L71.3962 30.6282C70.4237 30.3026 69.385 30.1237 68.3046 30.1237C62.9198 30.1237 58.539 34.5046 58.539 39.8893C58.539 42.793 59.8142 45.4032 61.8323 47.1934L61.2419 48.2161ZM59.5856 68.5545C62.2812 67.7197 64.7569 66.233 66.819 64.1711C70.1497 60.8405 71.9839 56.4321 71.9839 51.7581C71.9839 50.8387 71.91 49.9229 71.7669 49.019C73.1061 48.5094 74.3046 47.7135 75.2882 46.7061C75.688 48.3491 75.8901 50.0379 75.8901 51.7579C75.8901 57.4747 73.6493 62.8637 69.5804 66.9326C66.9106 69.6024 63.6726 71.485 60.1466 72.4641C60.2241 72.0844 60.2649 71.6914 60.2649 71.2891C60.2651 70.302 60.0187 69.3715 59.5856 68.5545ZM32.0007 77.1484H45.6724V84.375H32.0007V77.1484ZM83.703 96.0937H17.2969V90.2344C17.2969 89.1574 18.173 88.2812 19.25 88.2812H81.7499C82.8268 88.2812 83.703 89.1574 83.703 90.2344V96.0937Z" fill="black"/>
  <path d="M40.7342 67.3828C40.7342 66.3041 39.8596 65.4297 38.7811 65.4297H38.7795C37.701 65.4297 36.8271 66.3041 36.8271 67.3828C36.8271 68.4615 37.7023 69.3359 38.7811 69.3359C39.8598 69.3359 40.7342 68.4615 40.7342 67.3828Z" fill="black"/>
  </g>
  <defs>
  <clipPath id="clip0">
  <rect width="100" height="100" fill="white" transform="translate(0.5)"/>
  </clipPath>
  </defs>
  </symbol>
</svg>