<svg width="101" height="100" viewBox="0 0 101 100" fill="none" xmlns="http://www.w3.org/2000/svg">
<g clip-path="url(#clip0)">
<path d="M95.5 45H75.5C72.7386 45 70.5 47.2386 70.5 50V61.6667C70.5 64.4281 72.7386 66.6667 75.5 66.6667H78.8333V93.3333C78.8333 97.0152 81.8181 100 85.5 100C89.1819 100 92.1667 97.0152 92.1667 93.3333V66.6667H95.5C98.2614 66.6667 100.5 64.4281 100.5 61.6667V50C100.5 47.2386 98.2614 45 95.5 45ZM88.8333 93.3333C88.8333 95.1743 87.3409 96.6667 85.5 96.6667C83.659 96.6667 82.1667 95.1743 82.1667 93.3333V66.6667H88.8333V93.3333ZM97.1667 61.6667C97.1667 62.5871 96.4205 63.3333 95.5 63.3333H75.5C74.5795 63.3333 73.8333 62.5871 73.8333 61.6667V50C73.8333 49.0795 74.5795 48.3333 75.5 48.3333H95.5C96.4205 48.3333 97.1667 49.0795 97.1667 50V61.6667Z" fill="black"/>
<path d="M56.2816 28.8335L55.0149 27.5768C49.2549 21.7802 39.8716 12.8852 34.8333 8.10182C34.2766 7.57848 32.7266 6.21348 30.7533 4.49515C26.8417 1.08709 21.6668 -0.49945 16.5172 0.130582C11.3676 0.760613 6.72785 3.54794 3.75327 7.79848C-1.78946 15.7525 -0.074333 26.6622 7.6416 32.5318C7.72858 32.6048 7.81926 32.6732 7.91327 32.7368C8.68233 33.2431 9.71618 33.03 10.2224 32.261C10.7287 31.4919 10.5157 30.4581 9.7466 29.9518C9.68931 29.9023 9.62921 29.8561 9.5666 29.8135C3.33031 25.011 1.9723 16.1538 6.48327 9.70348C8.91579 6.23016 12.7082 3.95248 16.9171 3.43696C21.1261 2.92145 25.3561 4.21656 28.5549 7.00015C30.4833 8.68682 31.9999 10.0202 32.5366 10.5252C37.5666 15.2935 46.9266 24.1668 52.6516 29.9268L53.9399 31.2052C56.8066 34.0385 59.7733 36.9585 61.0583 40.6635C62.1848 43.9085 62.4609 47.3881 61.8599 50.7702L60.9033 56.0635C60.2766 58.4685 57.7033 59.2302 55.6666 59.1518C54.7461 59.1155 53.9705 59.8322 53.9341 60.7527C53.8978 61.6731 54.6145 62.4488 55.5349 62.4852C55.6699 62.4852 55.8066 62.4935 55.9433 62.4935C57.298 62.4962 58.6392 62.2253 59.8866 61.6968L53.5666 96.6668H38.0783L36.0616 70.4152C35.6243 65.0299 36.9714 59.6505 39.8949 55.1068L42.9066 50.9768C43.3637 50.2396 43.179 49.2751 42.4818 48.759C41.7847 48.2429 40.8082 48.3478 40.2366 49.0002L38.3366 51.5168C38.2649 51.6135 38.2016 51.7201 38.1283 51.8185L38.1166 51.8085L37.7833 51.5735C32.6433 47.7935 26.3933 42.9068 20.3483 38.1902L16.5983 35.2585C16.1291 34.8876 15.4972 34.7965 14.9424 35.0198C14.3876 35.2431 13.995 35.7465 13.9135 36.339C13.8321 36.9314 14.0743 37.5221 14.5483 37.8868L18.3016 40.8168C24.3649 45.5518 30.6349 50.4502 35.7616 54.2202C35.7883 54.2418 35.9516 54.3602 36.1733 54.5202L36.3066 54.6168C33.5299 59.4904 32.2864 65.0876 32.7383 70.6785L34.7549 96.9285C34.903 98.6657 36.3564 100 38.0999 100H53.5666C55.178 99.9959 56.559 98.8472 56.8566 97.2635L65.1399 51.3602C65.8437 47.4151 65.5223 43.3554 64.2066 39.5702C62.6666 35.1318 59.4199 31.9285 56.2816 28.8335Z" fill="black"/>
<path d="M68.6666 22.4734C67.7646 22.2936 66.8875 22.8783 66.7066 23.7801L65.5332 29.6667C65.4447 30.0999 65.532 30.5506 65.7758 30.9194C66.0196 31.2882 66.4 31.5451 66.8332 31.6334C66.9429 31.6563 67.0546 31.6675 67.1666 31.6667C67.9581 31.6661 68.6399 31.1089 68.7982 30.3334L69.9782 24.4417C70.067 24.0066 69.9784 23.5541 69.7321 23.1846C69.4859 22.815 69.1023 22.559 68.6666 22.4734Z" fill="black"/>
<path d="M75.5 41.6665C75.612 41.6673 75.7237 41.6561 75.8333 41.6332L81.7266 40.4549C82.3262 40.3542 82.8233 39.935 83.0239 39.3611C83.2244 38.7872 83.0966 38.1496 82.6903 37.6974C82.284 37.2451 81.6637 37.05 81.0716 37.1882L75.1666 38.3665C74.3275 38.5369 73.754 39.3155 73.8401 40.1674C73.9261 41.0193 74.6437 41.6674 75.5 41.6665Z" fill="black"/>
<path d="M80.012 29.5115C80.6436 28.8576 80.6346 27.8181 79.9917 27.1752C79.3488 26.5323 78.3093 26.5232 77.6553 27.1549L72.6553 32.1549C72.2221 32.5733 72.0483 33.193 72.2008 33.7757C72.3534 34.3584 72.8084 34.8135 73.3912 34.966C73.9739 35.1186 74.5936 34.9448 75.012 34.5115L80.012 29.5115Z" fill="black"/>
</g>
<defs>
<clipPath id="clip0">
<rect width="100" height="100" fill="white" transform="translate(0.5)"/>
</clipPath>
</defs>
</svg>
