<svg width="51" height="50" viewBox="0 0 51 50" fill="none" xmlns="http://www.w3.org/2000/svg">
<path fill-rule="evenodd" clip-rule="evenodd" d="M15.6041 20.8337C15.6041 15.3683 20.0346 10.9378 25.4999 10.9378C30.9652 10.9378 35.3957 15.3683 35.3957 20.8337C35.3957 26.299 30.9652 30.7295 25.4999 30.7295C20.0346 30.7295 15.6041 26.299 15.6041 20.8337ZM25.4999 14.0628C21.7605 14.0628 18.7291 17.0942 18.7291 20.8337C18.7291 24.5731 21.7605 27.6045 25.4999 27.6045C29.2393 27.6045 32.2707 24.5731 32.2707 20.8337C32.2707 17.0942 29.2393 14.0628 25.4999 14.0628Z" fill="black"/>
<path fill-rule="evenodd" clip-rule="evenodd" d="M7.84231 18.4521C8.58049 9.49666 16.0641 2.60449 25.05 2.60449H25.9498C34.9356 2.60449 42.4193 9.49666 43.1575 18.4521C43.554 23.2628 42.068 28.0397 39.0125 31.7765L29.0269 43.9886C27.204 46.218 23.7958 46.218 21.9729 43.9886L11.9873 31.7765C8.93178 28.0397 7.44577 23.2628 7.84231 18.4521ZM25.05 5.72949C17.6905 5.72949 11.5613 11.3742 10.9568 18.7088C10.6267 22.7127 11.8635 26.6883 14.4065 29.7984L24.3921 42.0104C24.9646 42.7107 26.0351 42.7107 26.6077 42.0104L36.5933 29.7984C39.1363 26.6883 40.3731 22.7127 40.043 18.7088C39.4385 11.3742 33.3093 5.72949 25.9498 5.72949H25.05Z" fill="black"/>
</svg>
