<svg width="93" height="93" viewBox="0 0 93 93" fill="none" xmlns="http://www.w3.org/2000/svg">
<g clip-path="url(#clip0)">
<path d="M3.33214 79.8639C4.04948 79.6686 4.47132 78.9342 4.27339 78.2234C2.49056 71.8131 2.90047 62.0253 5.52628 48.3006C7.25156 39.2827 10.0311 31.4799 13.7884 25.1085C16.4886 20.5297 19.6212 16.7853 23.0998 13.9783C25.3136 12.1912 28.449 12.162 30.7246 13.9081C32.4295 15.2157 33.3055 17.2731 33.0668 19.4103C32.5769 23.8106 32.7826 30.2251 36.3875 36.2686C35.899 36.8647 35.3529 37.5074 34.7437 38.196C34.7423 38.1974 34.7409 38.1994 34.7395 38.2008C33.422 39.7002 32.0231 41.1204 30.6039 42.5254C30.2564 42.8693 26.1391 46.7873 26.0373 46.6866C25.0553 45.7027 23.9084 44.4507 22.7769 42.9805C22.7931 41.7131 22.918 37.9271 23.7989 35.4077C24.0425 34.7115 23.6691 33.9514 22.9658 33.711C22.2624 33.4699 21.4953 33.8388 21.2517 34.535C20.7477 35.9754 20.46 37.7068 20.2957 39.2583C19.3587 37.6012 18.5564 35.7891 18.0377 33.8631C17.8454 33.1516 17.107 32.7278 16.3882 32.9182C15.6688 33.1079 15.2413 33.8388 15.4329 34.551C16.1166 37.0898 17.234 39.4362 18.5115 41.5193C16.7511 41.3483 14.5429 41.3928 12.5243 42.1884C11.8329 42.4607 11.4953 43.2368 11.7711 43.9212C12.0406 44.5931 12.8436 44.935 13.5217 44.6675C16.1938 43.6141 19.5229 44.3096 20.6333 44.5931C21.7887 46.0953 22.9545 47.3821 23.9688 48.4104C23.4571 48.8266 22.9587 49.2636 22.4751 49.7222C20.5196 51.5774 18.8 53.7765 17.3281 56.3021C15.4414 54.7395 13.0577 52.3319 12.1403 49.5645C11.908 48.8648 11.1464 48.4834 10.4389 48.7134C9.73208 48.9433 9.34674 49.6972 9.57907 50.3969C9.96512 51.5607 10.5407 52.6557 11.2264 53.6722C10.0627 53.8355 8.65958 54.1614 7.28385 54.8027C6.61002 55.1161 6.32084 55.9109 6.6381 56.5772C6.94974 57.2338 7.76816 57.5257 8.43146 57.2165C10.321 56.3368 12.3382 56.1993 13.2641 56.1868C14.1737 57.1442 15.1367 57.9919 16.0499 58.7166C15.4631 59.9269 14.9234 61.1978 14.4376 62.5339C13.78 64.3418 13.2697 66.1115 12.8731 67.7755C12.4288 67.6435 11.962 67.5199 11.4784 67.4108C11.0952 66.7347 10.4031 65.3256 10.248 63.7255C10.1771 62.9925 9.51941 62.454 8.7782 62.5248C8.03699 62.595 7.49372 63.2467 7.56461 63.9798C7.6734 65.1047 7.97382 66.1379 8.30722 66.9925C7.38141 66.9654 6.44578 67.0293 5.53541 67.2287C4.80824 67.3885 4.3499 68.1007 4.51063 68.8198C4.67207 69.5397 5.39152 69.9934 6.11799 69.8343C8.16123 69.3861 10.4719 69.8238 12.3214 70.3985C12.0062 72.1119 11.8104 73.6453 11.6918 74.896C11.5058 76.8442 12.9833 78.6785 14.969 78.8342C16.7146 78.9711 18.4006 77.7336 18.7656 76.0355C18.8737 75.5331 19.014 74.9335 19.1909 74.2568C20.6242 75.5248 22.233 77.298 22.8949 79.2928C23.123 79.982 23.9007 80.3704 24.5956 80.1446C25.3031 79.9146 25.6877 79.1607 25.4554 78.4604C25.1648 77.5849 24.7486 76.756 24.253 75.9785C25.1641 75.827 26.2128 75.5554 27.2431 75.0752C27.917 74.7619 28.2055 73.967 27.8889 73.3C27.5716 72.633 26.7687 72.3474 26.0955 72.6608C24.6279 73.3452 23.0591 73.4751 22.273 73.4932C21.5353 72.7247 20.7597 72.0424 20.022 71.456C21.1885 67.9367 23.1461 63.4635 26.3293 59.442C26.7511 60.0791 27.2333 60.7447 27.778 61.4187C27.5913 62.9271 27.2572 66.9181 28.4195 70.1094C28.668 70.7917 29.4569 71.1572 30.1448 70.9119C30.8446 70.6618 31.2082 69.8975 30.9555 69.2048C30.3694 67.5949 30.2536 65.655 30.288 64.0923C31.2763 64.9956 32.393 65.8606 33.6543 66.6319C34.2685 67.0071 35.1192 66.823 35.5095 66.1969C35.9004 65.5702 35.7039 64.7482 35.0701 64.3612C31.755 62.3352 29.5391 59.5531 28.1669 57.3276C28.7396 56.728 29.3411 56.1444 29.9799 55.5851C33.408 52.5828 36.2507 50.5782 38.5347 48.967C38.7487 48.8162 38.9572 48.6689 39.1629 48.523C39.8704 51.9012 40.7463 57.5173 40.7463 67.5761C40.7463 77.0395 39.4787 82.5118 36.6374 85.3203C33.4978 88.424 28.1261 88.4156 20.6923 88.4052C15.2118 88.4052 9.41903 87.6923 6.21696 82.7217C5.81687 82.1005 4.98371 81.9178 4.35621 82.3138C3.72871 82.7098 3.54411 83.5353 3.9442 84.1564C6.94202 88.8096 11.9719 91.0719 19.3208 91.0719C20.2108 91.0719 21.1008 91.0747 21.9908 91.0747C29.4022 91.0747 34.8258 90.8815 38.5424 87.2088C41.9305 83.8591 43.4424 77.8045 43.4424 67.5761C43.4424 55.97 42.294 50.0933 41.5381 46.7769C43.0023 45.6263 44.1337 44.5132 44.9164 43.1243C45.2238 42.5795 45.7923 42.2412 46.4002 42.2412H46.5897C47.1982 42.2412 47.7668 42.5795 48.0735 43.1243C48.8561 44.5132 49.9876 45.6263 51.4518 46.7769C50.6965 50.0933 49.5482 55.97 49.5482 67.5761C49.5482 77.8045 51.0594 83.8591 54.4482 87.2088C58.1641 90.8822 63.587 91.0747 70.9991 91.0747C71.8891 91.0747 72.7791 91.0719 73.6691 91.0719C80.2249 91.0719 84.903 89.2904 87.9697 85.6253C90.6158 82.4639 92.0709 77.9226 92.4176 71.7415C92.7658 65.5605 92.0112 57.7299 90.1119 47.8038C88.2953 38.3078 85.3319 30.0931 81.3051 23.3874C80.9247 22.7538 80.0971 22.546 79.4577 22.9226C78.8175 23.2992 78.6077 24.1177 78.9874 24.7513C82.8542 31.1888 85.7053 39.1117 87.4636 48.2999C91.0489 67.0397 90.5499 78.3596 85.8941 83.9237C82.5503 87.9189 77.18 88.3976 72.2983 88.4052C64.8644 88.4156 59.4921 88.424 56.3525 85.3203C53.5112 82.5118 52.2442 77.0395 52.2442 67.5761C52.2442 57.5173 53.1202 51.9012 53.8277 48.523C54.0334 48.6689 54.2418 48.8162 54.4559 48.967C57.4039 51.0465 60.2971 53.2088 63.01 55.5851C63.6487 56.1444 64.251 56.728 64.823 57.3276C63.4515 59.5524 61.2356 62.3352 57.9198 64.3612C57.2867 64.7482 57.0902 65.5702 57.4811 66.1969C57.8665 66.8153 58.7115 67.0133 59.3355 66.6319C60.5983 65.8606 61.715 64.9942 62.7047 64.0903C62.7391 65.6501 62.6232 67.5886 62.0351 69.2041C61.7248 70.0559 62.3895 70.9911 63.3027 70.9911C63.8551 70.9911 64.3724 70.6528 64.571 70.1094C65.7327 66.9181 65.3993 62.9271 65.2126 61.4187C65.7572 60.744 66.2395 60.0784 66.6606 59.442C69.8444 63.4635 71.802 67.9367 72.9686 71.456C72.2309 72.0424 71.4553 72.7247 70.7176 73.4932C69.9315 73.4751 68.3634 73.3452 66.895 72.6608C66.2212 72.3474 65.4189 72.6337 65.1017 73.3C64.7851 73.967 65.0736 74.7619 65.7474 75.0752C66.7778 75.5554 67.8272 75.827 68.7375 75.9785C68.242 76.756 67.8258 77.5849 67.5352 78.4604C67.3028 79.1607 67.6875 79.9146 68.395 80.1446C69.0794 80.3669 69.8641 79.9917 70.0957 79.2928C70.7576 77.298 72.3664 75.5248 73.7996 74.2568C73.9765 74.9335 74.1169 75.5331 74.225 76.0355C74.225 76.0376 74.2257 76.0389 74.2264 76.041C74.5914 77.7287 76.283 78.9697 78.0216 78.8342C80.102 78.6716 81.4792 76.7171 81.2833 74.7445C81.1633 73.5216 80.9717 72.0445 80.6692 70.3985C82.518 69.8238 84.8293 69.3861 86.8726 69.8343C87.5991 69.9934 88.3185 69.539 88.4792 68.8198C88.6407 68.1007 88.1816 67.3885 87.4552 67.2287C86.5448 67.0293 85.6092 66.9654 84.6833 66.9925C85.0167 66.1379 85.3172 65.1047 85.426 63.9798C85.4968 63.2467 84.9536 62.595 84.2124 62.5248C83.4705 62.454 82.8135 62.9925 82.7426 63.7255C82.5875 65.3291 81.8968 66.734 81.5122 67.4108C81.0285 67.5199 80.5618 67.6435 80.1175 67.7748C79.7209 66.1115 79.2106 64.3411 78.5529 62.5339C78.4301 62.1962 76.8936 58.7534 76.9407 58.7166C77.8545 57.9912 78.8175 57.1428 79.7279 56.1854C80.6481 56.1944 82.6527 56.3292 84.5591 57.2165C85.2105 57.5201 86.0359 57.2436 86.3525 56.5772C86.669 55.9109 86.3805 55.1161 85.7067 54.802C84.331 54.1614 82.9279 53.8355 81.7641 53.6722C82.4499 52.6557 83.0255 51.5607 83.4108 50.3969C83.6431 49.6972 83.2585 48.9433 82.551 48.7134C81.8441 48.4834 81.0826 48.8641 80.8503 49.5645C79.9322 52.3319 77.5492 54.7395 75.6618 56.3028C73.8263 53.1518 71.6048 50.5108 69.0211 48.4104C70.036 47.3821 71.2026 46.0946 72.3579 44.5917C73.4669 44.3055 76.7806 43.6079 79.4689 44.6675C80.1512 44.9364 80.9478 44.5973 81.2195 43.9212C81.4946 43.2368 81.1577 42.4607 80.4656 42.1884C78.4469 41.3928 76.2395 41.3483 74.4791 41.5193C75.7565 39.4369 76.8733 37.0898 77.5576 34.551C77.7493 33.8395 77.3218 33.1079 76.6023 32.9182C75.8836 32.7285 75.1445 33.1516 74.9529 33.8638C74.4342 35.7891 73.6319 37.6019 72.6948 39.2583C72.5306 37.7068 72.2428 35.9754 71.7389 34.535C71.4953 33.8388 70.7281 33.4699 70.0241 33.711C69.3208 33.9521 68.9481 34.7115 69.1917 35.4084C70.0725 37.9278 70.1968 41.7131 70.2136 42.9805C69.0822 44.4507 67.9352 45.7027 66.9526 46.6873C66.9224 46.6609 66.8908 46.6345 66.8606 46.6088C64.2559 44.3798 61.901 41.9507 59.4717 39.5453C58.3508 38.3398 57.3997 37.2399 56.603 36.2693C60.208 30.2244 60.4137 23.8106 59.923 19.4103C59.6851 17.2731 60.5611 15.2157 62.266 13.9081C64.5415 12.162 67.6762 12.1912 69.8907 13.9783C72.1277 15.7834 74.2531 18.0158 76.2086 20.6137C76.6529 21.2043 77.4973 21.3266 78.0939 20.8861C78.6912 20.4463 78.8147 19.6104 78.3697 19.0191C76.2823 16.2461 74.0025 13.8539 71.5943 11.9098C68.402 9.33415 63.8874 9.28829 60.6144 11.7987C58.162 13.6802 56.902 16.6352 57.2439 19.7028C57.6629 23.4625 57.5281 28.8313 54.8104 33.9694C54.7079 33.8305 54.6089 33.695 54.5177 33.5678C53.7638 32.5187 53.3652 31.2875 53.3652 30.0069V5.5231C53.3652 3.5005 51.7024 1.85449 49.6591 1.85449H43.3322C41.2889 1.85449 39.6261 3.5005 39.6261 5.5231V30.0069C39.6261 31.2875 39.2274 32.5187 38.4736 33.5678C38.3823 33.695 38.2834 33.8305 38.1809 33.9694C35.4638 28.8313 35.3284 23.4625 35.7474 19.7028C36.0892 16.6352 34.8293 13.6802 32.3769 11.7987C29.1039 9.28829 24.5893 9.33415 21.3977 11.9098C17.6678 14.9198 14.3253 18.9073 11.4616 23.7633C7.54846 30.3981 4.66084 38.4864 2.87871 47.8038C0.173575 61.9377 -0.21949 72.1202 1.67494 78.9321C1.87218 79.6422 2.61409 80.0598 3.33214 79.8639ZM40.6691 35.1145C41.7501 33.6116 42.3207 31.8454 42.3207 30.0069V5.5231C42.3207 4.97142 42.7741 4.52327 43.3315 4.52327H49.6584C50.2157 4.52327 50.6691 4.97142 50.6691 5.5231V30.0069C50.6691 31.8454 51.2398 33.6116 52.32 35.1145C54.5998 38.2863 57.2369 41.2066 60.015 43.956C62.8254 46.738 66.0275 49.0955 68.8618 51.8539C76.3054 59.1001 78.1564 70.37 78.6119 75.1204C78.6126 75.1287 78.6133 75.1378 78.614 75.1461C78.6603 75.6304 78.315 76.1334 77.8068 76.1737C77.7977 76.1744 77.7886 76.173 77.7794 76.1737C77.345 76.1946 76.9512 75.9021 76.8606 75.4803C76.5743 74.147 76.2675 72.7719 75.8036 71.4865C73.9021 66.2893 71.7957 61.3881 68.1971 57.0789C64.7739 52.9802 60.3631 49.8577 56.0191 46.7936C54.046 45.4012 51.642 43.9803 50.427 41.825C48.7621 38.8692 44.2299 38.8644 42.5622 41.8243C41.3451 43.9845 38.9509 45.3956 36.9701 46.7936C34.6349 48.4403 31.729 50.4907 28.1942 53.5861C23.2402 57.9245 19.8514 63.7922 17.7001 69.9274C17.0635 71.7429 16.5335 73.6002 16.1292 75.4803C16.0366 75.9111 15.6302 76.2092 15.1824 76.1737C14.6728 76.1334 14.3288 75.629 14.3752 75.1461C14.5528 73.2812 14.9472 70.3985 15.8141 67.146C16.8838 63.1335 18.4841 59.2148 20.8474 55.7713C22.1782 53.832 23.7765 52.0165 25.6955 50.4587C28.2146 48.4146 30.6418 46.2572 32.9489 43.981C35.739 41.2288 38.3837 38.2939 40.6691 35.1145Z" fill="black"/>
</g>
<defs>
<clipPath id="clip0">
<rect width="92" height="91.0707" fill="white" transform="translate(0.5 0.964844)"/>
</clipPath>
</defs>
</svg>
