<svg id="man" width="51" height="50" viewBox="0 0 51 50" fill="none" xmlns="http://www.w3.org/2000/svg">
<path d="M41 43.475V48.2001C41 48.6418 40.6352 49 40.1852 49C39.7352 49 39.3704 48.6418 39.3704 48.2001V43.475C39.3704 39.796 36.3377 36.8187 32.5898 36.8188C30.8164 36.8188 29.2075 35.9319 28.2856 34.4463C28.0515 34.0691 28.1732 33.5768 28.5576 33.347C28.9419 33.1172 29.4432 33.2368 29.6774 33.6141C30.3009 34.6191 31.3896 35.219 32.5898 35.219C37.238 35.2188 41 38.9115 41 43.475ZM26.7808 35.4568C26.8767 35.8884 26.5979 36.3146 26.1582 36.4086C24.0138 36.8673 21.8328 36.4081 20.0964 35.2446C18.3773 37.0531 16.1062 36.8188 16.4102 36.8188C12.6626 36.8187 9.62963 39.7957 9.62963 43.475V48.2001C9.62963 48.6418 9.2648 49 8.81482 49C8.36483 49 8 48.6418 8 48.2001V43.475C8 38.912 11.7613 35.219 16.41 35.219C18.2904 35.219 19.8149 33.7317 19.8149 31.8852V31.6746C16.2583 30.0051 13.7619 26.4968 13.6097 22.4115C12.1461 22.066 11.0556 20.78 11.0556 19.2499V15.1031C11.0111 13.0734 11.318 7.98977 15.0938 4.41684C19.7561 0.00482059 27.2328 0.285083 32.7306 2.88324C33.2665 3.13671 33.3478 3.84742 32.9029 4.21547C35.688 4.88238 38.0897 6.56316 39.6326 8.96865C39.7123 9.09253 39.8581 9.287 39.82 9.59726C39.7964 9.79034 39.7378 9.95372 39.5863 10.1047C38.5932 11.0934 38.0464 12.4035 38.0464 13.7938V19.2501C38.0464 19.6918 37.6816 20.05 37.2316 20.05C36.7816 20.05 36.4168 19.6918 36.4168 19.2501V13.7938C36.4168 12.1903 36.9748 10.6683 37.9997 9.44568C36.4375 7.25237 34.0002 5.84176 31.2437 5.55199L29.8115 5.40141C28.9741 5.31343 28.8098 4.18087 29.5881 3.86641L30.2394 3.60315C21.7566 0.700029 12.6851 3.9257 12.6851 15.0944V19.2499C12.6851 19.8846 13.0575 20.4362 13.6018 20.7133V15.5277C13.6018 12.4403 16.1605 9.92842 19.3055 9.92842H29.6944C32.8394 9.92842 35.3981 12.4401 35.3981 15.5274V22.0768C35.3981 29.0333 28.4734 34.3172 21.4271 32.2808C21.3812 32.8515 21.2365 33.4022 21.0007 33.9142C22.3714 34.8383 24.1024 35.211 25.8112 34.8455C26.2509 34.7515 26.685 35.0251 26.7808 35.4568ZM24.4999 31.1148C29.6107 31.1148 33.7685 27.0332 33.7685 22.016V15.5274C33.7685 13.3223 31.9409 11.5282 29.6944 11.5282H19.3055C17.059 11.5282 15.2314 13.3224 15.2314 15.5277V22.016C15.2314 27.0332 19.3892 31.1148 24.4999 31.1148Z" fill="black"/>
</svg>
