<svg width="101" height="100" viewBox="0 0 101 100" fill="none" xmlns="http://www.w3.org/2000/svg">
<g clip-path="url(#clip0)">
<path d="M81.7499 84.375H75.3042V80.7617C75.3042 76.9795 73.9087 73.3676 71.419 70.5744C71.7329 70.2899 72.0409 69.9965 72.3427 69.6947C77.1491 64.8881 79.7963 58.518 79.7963 51.7579C79.7963 48.3776 79.1372 45.0979 77.8378 42.0001C77.9883 41.32 78.07 40.6143 78.07 39.8897C78.07 36.986 76.7948 34.3761 74.7766 32.5856L75.3669 31.5632C76.6399 29.3581 76.3112 26.6616 74.7458 24.8269L77.129 20.6989C77.4657 20.698 77.8048 20.6536 78.1391 20.564C79.1483 20.2937 79.9909 19.648 80.5114 18.7462L83.4411 13.6718C83.9805 12.7376 83.6604 11.5431 82.7262 11.0038L64.1202 0.261675C63.6716 0.00249606 63.138 -0.0674257 62.6382 0.0665584C62.1376 0.200738 61.7112 0.527886 61.4522 0.976518L58.5226 6.05092C57.8017 7.29975 57.854 8.78373 58.5251 9.95267L56.1403 14.0829C55.2929 13.9261 54.413 13.9589 53.554 14.1892C52.0392 14.595 50.7751 15.563 49.9949 16.9146L39.2527 35.5208C38.4722 36.8723 38.266 38.4509 38.6718 39.9657C38.9021 40.8251 39.3136 41.6034 39.873 42.2589L37.7527 45.9313C37.232 46.8331 37.0943 47.8856 37.3648 48.895C37.6353 49.9042 38.2808 50.7467 39.1826 51.2672L51.0228 58.1032C51.6364 58.4575 52.307 58.6258 52.9693 58.6258C54.3202 58.6258 55.636 57.9252 56.3587 56.6735L58.4798 52.9995C58.8265 53.0635 59.1784 53.0979 59.5325 53.0979C60.0433 53.0979 60.5581 53.0307 61.0655 52.8946C62.5804 52.4887 63.8444 51.5208 64.6247 50.1692L65.2128 49.1506C66.0665 49.4364 66.9718 49.6077 67.9114 49.6452C68.021 50.3422 68.0776 51.0487 68.0776 51.7581C68.0776 55.3887 66.6495 58.8161 64.0567 61.409C61.464 64.002 58.0364 65.4297 54.4058 65.4297H47.5695C46.491 65.4297 45.6163 66.3041 45.6163 67.3828C45.6163 68.4615 46.491 69.336 47.5695 69.336H54.4058C55.4827 69.336 56.3589 70.2121 56.3589 71.2891C56.3589 72.366 55.4827 73.2422 54.4058 73.2422H23.1566C22.0797 73.2422 21.2035 72.366 21.2035 71.2891C21.2035 70.2121 22.0797 69.336 23.1566 69.336H29.9914C31.0699 69.336 31.9445 68.4615 31.9445 67.3828C31.9445 66.3041 31.0699 65.4297 29.9914 65.4297H23.1566C19.9258 65.4297 17.2973 68.0582 17.2973 71.2891C17.2973 74.5199 19.9258 77.1484 23.1566 77.1484H28.0945V84.375H19.25C16.0191 84.375 13.3906 87.0035 13.3906 90.2344V98.0468C13.3906 99.1255 14.2652 99.9999 15.3437 99.9999H85.6561C86.7346 99.9999 87.6092 99.1255 87.6092 98.0468V90.2344C87.6092 87.0035 84.9807 84.375 81.7499 84.375ZM71.3979 80.7617V84.375H67.4917V80.7617C67.4917 78.423 66.4183 76.3307 64.7386 74.9504C65.9806 74.3938 67.1784 73.7346 68.3231 72.9783C70.2899 75.0863 71.3979 77.8568 71.3979 80.7617ZM54.4058 77.1484H59.9722C61.9646 77.1484 63.5854 78.7693 63.5854 80.7617V84.375H49.5786V77.1484H54.4058ZM68.3044 45.7489C65.0735 45.7489 62.445 43.1204 62.445 39.8895C62.445 36.6587 65.0735 34.0302 68.3044 34.0302C71.5352 34.0302 74.1637 36.6587 74.1637 39.8895C74.1637 43.1204 71.5352 45.7489 68.3044 45.7489ZM59.6903 15.7466L61.6437 12.3634L73.4841 19.1993L71.5307 22.5825L59.6903 15.7466ZM63.8585 4.62104L79.0815 13.4101L77.1286 16.7929L61.9054 8.00385L63.8585 4.62104ZM41.1357 47.8844L43.089 44.5014L54.9292 51.3374L52.9761 54.7204L41.1357 47.8844ZM61.2419 48.2161C60.9833 48.6641 60.5616 48.9856 60.0546 49.1215C59.548 49.2573 59.0222 49.1897 58.5739 48.9309L43.3525 40.1428C43.3519 40.1425 43.3515 40.1421 43.3509 40.1419C43.3507 40.1417 43.3503 40.1417 43.3499 40.1415C42.9023 39.8827 42.581 39.4614 42.4453 38.9548C42.3095 38.4479 42.3771 37.922 42.6359 37.4739L53.378 18.8677C53.6366 18.4196 54.0583 18.0982 54.5653 17.9622C55.0718 17.8265 55.5978 17.8941 56.046 18.1529L71.2692 26.9419C72.2016 27.4804 72.5225 28.6772 71.9841 29.6099L71.3962 30.6282C70.4237 30.3026 69.385 30.1237 68.3046 30.1237C62.9198 30.1237 58.539 34.5046 58.539 39.8893C58.539 42.793 59.8142 45.4032 61.8323 47.1934L61.2419 48.2161ZM59.5856 68.5545C62.2812 67.7197 64.7569 66.233 66.819 64.1711C70.1497 60.8405 71.9839 56.4321 71.9839 51.7581C71.9839 50.8387 71.91 49.9229 71.7669 49.019C73.1061 48.5094 74.3046 47.7135 75.2882 46.7061C75.688 48.3491 75.8901 50.0379 75.8901 51.7579C75.8901 57.4747 73.6493 62.8637 69.5804 66.9326C66.9106 69.6024 63.6726 71.485 60.1466 72.4641C60.2241 72.0844 60.2649 71.6914 60.2649 71.2891C60.2651 70.302 60.0187 69.3715 59.5856 68.5545ZM32.0007 77.1484H45.6724V84.375H32.0007V77.1484ZM83.703 96.0937H17.2969V90.2344C17.2969 89.1574 18.173 88.2812 19.25 88.2812H81.7499C82.8268 88.2812 83.703 89.1574 83.703 90.2344V96.0937Z" fill="black"/>
<path d="M40.7342 67.3828C40.7342 66.3041 39.8596 65.4297 38.7811 65.4297H38.7795C37.701 65.4297 36.8271 66.3041 36.8271 67.3828C36.8271 68.4615 37.7023 69.3359 38.7811 69.3359C39.8598 69.3359 40.7342 68.4615 40.7342 67.3828Z" fill="black"/>
</g>
<defs>
<clipPath id="clip0">
<rect width="100" height="100" fill="white" transform="translate(0.5)"/>
</clipPath>
</defs>
</svg>
