<svg id="muscle" width="51" height="50" viewBox="0 0 51 50" fill="none" xmlns="http://www.w3.org/2000/svg">
<path d="M35.6492 43.3266C34.1911 43.3257 32.7502 43.0114 31.4242 42.405C30.5769 42.0256 29.761 41.5798 28.9842 41.0716C15.715 46.0475 8.5675 37.7608 7.175 35.9116C6.88379 35.9635 6.58505 35.9555 6.29704 35.888C6.00904 35.8205 5.73783 35.695 5.5 35.5191C5.22509 35.2737 5.00505 34.973 4.85428 34.6367C4.7035 34.3004 4.62537 33.936 4.625 33.5675C4.67417 28.8333 5.91667 23.0916 8.32667 16.495C9.16094 14.1504 10.5563 12.0455 12.3911 10.3642C14.2258 8.68284 16.4441 7.47606 18.8525 6.84913C19.0317 6.80413 19.2033 6.7658 19.3658 6.73247C19.8826 6.64205 20.4124 6.65949 20.9221 6.78368C21.4318 6.90787 21.9103 7.13614 22.3275 7.45413C23.7405 8.48698 24.7923 9.93875 25.3333 11.6033C25.5833 13.0825 21.3858 16.4783 20.9067 16.86C20.0008 17.5941 18.8408 16.7208 18.1892 16.0841C17.8624 16.349 17.4866 16.547 17.0833 16.6666C17.7583 19.7729 17.8807 22.9737 17.445 26.1225C21.9517 23.3425 25.3258 25.16 27.22 26.9141C28.8695 24.9394 31.133 23.5743 33.6492 23.0366C35.1076 22.7222 36.6181 22.7398 38.0689 23.0881C39.5196 23.4365 40.8734 24.1067 42.03 25.0491C43.6879 26.3767 44.8933 28.1858 45.4799 30.2271C46.0665 32.2684 46.0056 34.4414 45.3054 36.4467C44.6052 38.4519 43.3004 40.1906 41.5706 41.4231C39.8409 42.6556 37.7714 43.3212 35.6475 43.3283L35.6492 43.3266ZM29.07 39.7433C29.2063 39.7433 29.3388 39.7878 29.4475 39.87C30.2322 40.4152 31.0681 40.8826 31.9433 41.2658C33.3116 41.8846 34.8132 42.1505 36.3108 42.039C37.8084 41.9275 39.2541 41.4423 40.5157 40.6277C41.7773 39.8131 42.8145 38.6952 43.5324 37.3762C44.2502 36.0572 44.6259 34.5792 44.625 33.0775C44.6274 31.7233 44.3254 30.386 43.7412 29.1644C43.157 27.9428 42.3056 26.8681 41.25 26.02C40.2381 25.195 39.0536 24.6082 37.7842 24.303C36.5148 23.9978 35.193 23.9819 33.9167 24.2566C31.4547 24.7907 29.2701 26.1998 27.7683 28.2225C27.7133 28.2941 27.6434 28.3529 27.5634 28.3947C27.4834 28.4366 27.3952 28.4606 27.305 28.465C27.2149 28.4702 27.1247 28.4555 27.0409 28.4219C26.957 28.3884 26.8816 28.3368 26.82 28.2708C24.8433 26.1875 21.5292 24.4375 16.9592 27.9816C16.8582 28.06 16.7356 28.1054 16.6079 28.1119C16.4803 28.1185 16.3537 28.0857 16.2453 28.018C16.1369 27.9503 16.0518 27.8511 16.0015 27.7336C15.9512 27.616 15.9382 27.4859 15.9642 27.3608C16.6937 23.6951 16.61 19.914 15.7192 16.2841C15.6959 16.1867 15.6965 16.0852 15.7207 15.988C15.7449 15.8908 15.7921 15.8009 15.8583 15.7258C15.9253 15.6514 16.0089 15.5939 16.1023 15.5579C16.1957 15.5218 16.2962 15.5083 16.3958 15.5183C16.6629 15.5004 16.923 15.4252 17.1584 15.2978C17.3938 15.1704 17.599 14.9938 17.76 14.78C17.8188 14.7126 17.8919 14.6593 17.9739 14.6238C18.0559 14.5884 18.1449 14.5717 18.2342 14.575C18.3235 14.577 18.4114 14.5981 18.492 14.6367C18.5727 14.6754 18.6441 14.7307 18.7017 14.7991C19.2325 15.4308 19.9333 15.9283 20.1367 15.8825C21.6308 14.6875 24.0125 12.3766 24.1008 11.7591C23.5993 10.4553 22.7389 9.32018 21.6192 8.48497C21.3386 8.26466 21.0159 8.10432 20.6708 8.01387C20.3258 7.92342 19.9659 7.90479 19.6133 7.95913C19.4689 7.98858 19.3175 8.02302 19.1592 8.06247C16.9483 8.63911 14.9122 9.74809 13.2285 11.2926C11.5448 12.8371 10.2648 14.7703 9.5 16.9233C7.1425 23.3875 5.9225 28.9891 5.875 33.5741C5.87716 33.9341 6.01944 34.279 6.27167 34.5358C6.4256 34.6254 6.59763 34.6793 6.77514 34.6937C6.95264 34.7082 7.13113 34.6827 7.2975 34.6191C7.42464 34.5882 7.55824 34.5975 7.67987 34.6457C7.80151 34.694 7.90521 34.7787 7.97667 34.8883C8.24917 35.3141 14.81 45.235 28.845 39.7908C28.9165 39.7617 28.9928 39.7462 29.07 39.745V39.7433Z" fill="black"/>
<path d="M15.9244 28.6344C15.7965 28.6345 15.6716 28.5954 15.5667 28.5223C15.4617 28.4492 15.3817 28.3456 15.3374 28.2256C15.2932 28.1056 15.2868 27.9749 15.3192 27.8511C15.3516 27.7274 15.4212 27.6165 15.5186 27.5336C15.7478 27.3386 15.9861 27.1436 16.2069 26.9828C16.341 26.8852 16.5083 26.8449 16.6721 26.8706C16.8359 26.8964 16.9827 26.9862 17.0803 27.1203C17.1778 27.2543 17.2182 27.4216 17.1924 27.5854C17.1666 27.7492 17.0768 27.896 16.9428 27.9936C16.7453 28.1369 16.5336 28.3119 16.3294 28.4861C16.2164 28.5822 16.0728 28.6348 15.9244 28.6344Z" fill="black"/>
<path d="M29.0717 30.9397C28.9556 30.9399 28.8418 30.9077 28.743 30.8468C28.6442 30.7858 28.5644 30.6985 28.5125 30.5947C28.053 29.7494 27.4839 28.9685 26.82 28.2722C26.7608 28.2134 26.714 28.1433 26.6824 28.066C26.6508 27.9888 26.6349 27.906 26.6358 27.8226C26.6366 27.7391 26.6542 27.6567 26.6875 27.5801C26.7207 27.5036 26.769 27.4345 26.8293 27.3769C26.8897 27.3193 26.961 27.2743 27.0391 27.2447C27.1171 27.2151 27.2003 27.2015 27.2837 27.2045C27.3671 27.2076 27.449 27.2273 27.5247 27.2626C27.6003 27.2978 27.6682 27.3478 27.7242 27.4097C28.4759 28.1943 29.1171 29.0777 29.63 30.0356C29.6773 30.1308 29.6995 30.2365 29.6946 30.3428C29.6897 30.449 29.6578 30.5522 29.602 30.6427C29.5461 30.7332 29.4681 30.808 29.3753 30.8599C29.2825 30.9119 29.178 30.9394 29.0717 30.9397Z" fill="black"/>
</svg>
