<svg width="51" height="50" viewBox="0 0 51 50" fill="none" xmlns="http://www.w3.org/2000/svg">
<path fill-rule="evenodd" clip-rule="evenodd" d="M12.6673 20.534C16.3909 28.6421 23.0169 35.0883 31.2539 38.5812L31.2799 38.5922L32.8712 39.3015C34.8975 40.2043 37.2792 39.5631 38.5784 37.765L41.2333 34.0906C41.3955 33.8661 41.3537 33.554 41.1382 33.3802L36.5033 29.641C36.2729 29.4551 35.9341 29.4984 35.7578 29.7363L33.9539 32.1704C33.5158 32.7615 32.7247 32.967 32.0544 32.6636C25.8952 29.8762 20.9458 24.9268 18.1584 18.7677C17.8551 18.0973 18.0605 17.3062 18.6516 16.8681L21.0858 15.0642C21.3236 14.888 21.3669 14.5491 21.181 14.3187L17.4413 9.68323C17.2675 9.46778 16.9556 9.42594 16.7311 9.58796L13.0368 12.255C11.2268 13.5616 10.5894 15.9634 11.5132 17.9956L12.666 20.5313C12.6665 20.5322 12.6669 20.5331 12.6673 20.534ZM30.0207 41.4526C21.0707 37.6535 13.872 30.6472 9.82608 21.8352L9.82365 21.8299L8.66843 19.2889C7.12864 15.9019 8.19099 11.899 11.2076 9.72121L14.902 7.05422C16.4731 5.92004 18.6569 6.21296 19.8735 7.72107L23.6132 12.3566C24.9144 13.9694 24.6113 16.3411 22.9464 17.5749L21.5516 18.6086C23.9077 23.1802 27.6418 26.9144 32.2134 29.2704L33.2471 27.8756C34.4809 26.2107 36.8526 25.9076 38.4655 27.2088L43.1003 30.948C44.6089 32.165 44.9015 34.3496 43.7663 35.9207L41.1114 39.5952C38.9461 42.592 34.9765 43.6607 31.5994 42.156L30.0207 41.4526Z" fill="black"/>
</svg>
