<svg width="726" height="726" viewBox="0 0 726 726" fill="none" xmlns="http://www.w3.org/2000/svg">
<g clip-path="url(#clip0)">
<path d="M342.384 294.759C345.32 291.823 345.32 287.063 342.384 284.127C339.448 281.191 334.688 281.191 331.752 284.127C328.816 287.063 328.816 291.823 331.752 294.759C334.688 297.695 339.448 297.695 342.384 294.759Z" fill="black"/>
<path d="M368.31 294.764C371.246 291.828 371.246 287.068 368.31 284.132C365.374 281.196 360.614 281.196 357.678 284.132C354.742 287.068 354.742 291.828 357.678 294.764C360.614 297.7 365.374 297.7 368.31 294.764Z" fill="black"/>
<path d="M394.242 294.759C397.178 291.823 397.178 287.063 394.242 284.127C391.306 281.191 386.546 281.191 383.61 284.127C380.674 287.063 380.674 291.823 383.61 294.759C386.546 297.695 391.306 297.695 394.242 294.759Z" fill="black"/>
<path d="M342.386 331.545C345.322 328.609 345.322 323.849 342.386 320.913C339.45 317.977 334.689 317.977 331.754 320.913C328.818 323.849 328.818 328.609 331.754 331.545C334.689 334.481 339.45 334.481 342.386 331.545Z" fill="black"/>
<path d="M368.31 331.534C371.246 328.598 371.246 323.838 368.31 320.902C365.374 317.966 360.614 317.966 357.678 320.902C354.742 323.838 354.742 328.598 357.678 331.534C360.614 334.47 365.374 334.47 368.31 331.534Z" fill="black"/>
<path d="M394.245 331.546C397.181 328.61 397.181 323.85 394.245 320.914C391.309 317.978 386.549 317.978 383.613 320.914C380.677 323.85 380.677 328.61 383.613 331.546C386.549 334.482 391.309 334.482 394.245 331.546Z" fill="black"/>
<path d="M342.395 368.314C345.331 365.378 345.331 360.618 342.395 357.682C339.459 354.746 334.699 354.746 331.763 357.682C328.827 360.618 328.827 365.378 331.763 368.314C334.699 371.25 339.459 371.25 342.395 368.314Z" fill="black"/>
<path d="M368.312 368.319C371.248 365.383 371.248 360.623 368.312 357.687C365.376 354.751 360.616 354.751 357.68 357.687C354.744 360.623 354.744 365.383 357.68 368.319C360.616 371.255 365.376 371.255 368.312 368.319Z" fill="black"/>
<path d="M394.236 368.318C397.172 365.382 397.172 360.622 394.236 357.686C391.3 354.75 386.54 354.75 383.604 357.686C380.668 360.622 380.668 365.382 383.604 368.318C386.54 371.254 391.3 371.254 394.236 368.318Z" fill="black"/>
<path d="M342.381 405.093C345.317 402.157 345.317 397.397 342.381 394.461C339.445 391.525 334.685 391.525 331.749 394.461C328.813 397.397 328.813 402.157 331.749 405.093C334.685 408.029 339.445 408.029 342.381 405.093Z" fill="black"/>
<path d="M368.314 405.105C371.25 402.169 371.25 397.409 368.314 394.473C365.378 391.537 360.618 391.537 357.682 394.473C354.746 397.409 354.746 402.169 357.682 405.105C360.618 408.041 365.378 408.041 368.314 405.105Z" fill="black"/>
<path d="M394.239 405.093C397.175 402.157 397.175 397.397 394.239 394.461C391.303 391.525 386.543 391.525 383.607 394.461C380.671 397.397 380.671 402.157 383.607 405.093C386.543 408.029 391.303 408.029 394.239 405.093Z" fill="black"/>
<path d="M342.384 441.879C345.32 438.943 345.32 434.183 342.384 431.247C339.448 428.311 334.688 428.311 331.752 431.247C328.816 434.183 328.816 438.943 331.752 441.879C334.688 444.815 339.448 444.815 342.384 441.879Z" fill="black"/>
<path d="M368.314 441.875C371.25 438.939 371.25 434.179 368.314 431.243C365.378 428.307 360.618 428.307 357.682 431.243C354.746 434.179 354.746 438.939 357.682 441.875C360.618 444.811 365.378 444.811 368.314 441.875Z" fill="black"/>
<path d="M394.242 441.88C397.178 438.944 397.178 434.184 394.242 431.248C391.306 428.312 386.546 428.312 383.61 431.248C380.674 434.184 380.674 438.944 383.61 441.88C386.546 444.816 391.306 444.816 394.242 441.88Z" fill="black"/>
<path d="M396.049 63.4689L329.952 63.4689C310.954 63.4689 293.094 70.8666 279.661 84.2995C266.228 97.7324 258.831 115.593 258.831 134.59V591.41C258.831 610.407 266.228 628.268 279.661 641.7C293.094 655.133 310.954 662.531 329.95 662.531L396.048 662.531C415.046 662.53 432.905 655.133 446.338 641.7C459.771 628.267 467.169 610.407 467.168 591.41V134.59C467.169 115.593 459.771 97.7331 446.338 84.2995C432.905 70.8666 415.045 63.4689 396.049 63.4689ZM452.124 134.59L452.125 591.411C452.125 606.388 446.292 620.471 435.7 631.063C425.109 641.654 411.027 647.487 396.049 647.487L329.951 647.487C314.973 647.487 300.891 641.655 290.299 631.063C279.708 620.472 273.874 606.39 273.875 591.41L273.874 134.589C273.874 119.611 279.708 105.528 290.299 94.9372C300.89 84.3462 314.972 78.5133 329.95 78.5133L396.048 78.5126C411.026 78.5125 425.109 84.3462 435.7 94.9372C446.292 105.529 452.125 119.61 452.124 134.59Z" fill="black"/>
<path d="M405.195 242.713H320.804C314.594 242.714 308.756 245.132 304.365 249.524C299.973 253.915 297.555 259.754 297.555 265.964L297.554 460.038C297.554 466.248 299.973 472.086 304.364 476.477C308.755 480.868 314.593 483.287 320.804 483.287H405.194C411.405 483.287 417.243 480.869 421.635 476.477C426.027 472.085 428.444 466.247 428.445 460.036L428.444 265.964C428.445 259.754 426.027 253.915 421.635 249.523C417.244 245.132 411.405 242.713 405.195 242.713ZM413.401 265.964V460.036C413.401 462.228 412.548 464.289 410.998 465.839C409.448 467.389 407.387 468.242 405.195 468.242H320.805C316.28 468.242 312.599 464.561 312.599 460.036L312.6 265.962C312.599 263.771 313.453 261.71 315.003 260.16C316.553 258.61 318.614 257.756 320.805 257.757H405.196C407.387 257.758 409.449 258.611 410.998 260.16C412.547 261.711 413.401 263.772 413.401 265.964Z" fill="black"/>
<path d="M229.899 258.83L134.589 258.83C115.593 258.83 97.7327 266.228 84.2998 279.661C70.8669 293.094 63.4692 310.954 63.4692 329.951V396.049C63.4692 415.046 70.8669 432.906 84.2991 446.338C97.7313 459.77 115.592 467.169 134.588 467.169L231.317 467.169C233.395 467.169 235.275 466.327 236.636 464.966C237.997 463.604 238.839 461.723 238.839 459.647C238.839 455.493 235.471 452.125 231.317 452.124L134.589 452.124C119.611 452.125 105.528 446.292 94.9368 435.7C84.3458 425.109 78.5122 411.028 78.5129 396.048V329.951C78.5129 314.973 84.3465 300.89 94.9375 290.299C105.529 279.708 119.611 273.875 134.589 273.875L229.899 273.876C234.053 273.876 237.42 270.509 237.422 266.353C237.422 262.199 234.054 258.831 229.899 258.83Z" fill="black"/>
<path d="M591.411 258.831L494.66 258.83C490.506 258.831 487.138 262.198 487.137 266.353C487.137 270.507 490.505 273.875 494.659 273.876L591.411 273.875C622.331 273.875 647.487 299.031 647.487 329.951V396.049C647.487 426.969 622.331 452.125 591.411 452.125L493.241 452.125C489.087 452.124 485.72 455.492 485.719 459.647C485.719 463.801 489.087 467.169 493.241 467.17L591.411 467.17C611.019 467.169 628.799 459.193 641.677 446.315C654.554 433.437 662.531 415.657 662.531 396.049V329.951C662.53 290.737 630.626 258.833 591.411 258.831Z" fill="black"/>
</g>
<defs>
<clipPath id="clip0">
<rect width="512" height="512" fill="white" transform="translate(0.960938 363) rotate(-45)"/>
</clipPath>
</defs>
</svg>
