<svg width="725" height="725" viewBox="0 0 725 725" fill="none" xmlns="http://www.w3.org/2000/svg">
<g clip-path="url(#clip0)">
<path d="M341.423 293.797C344.359 290.861 344.359 286.101 341.423 283.165C338.487 280.229 333.727 280.229 330.791 283.165C327.855 286.101 327.855 290.861 330.791 293.797C333.727 296.733 338.487 296.733 341.423 293.797Z" fill="#FFF"/>
<path d="M367.349 293.803C370.285 290.867 370.285 286.107 367.349 283.171C364.414 280.235 359.653 280.235 356.717 283.171C353.781 286.107 353.781 290.867 356.717 293.803C359.653 296.739 364.414 296.739 367.349 293.803Z" fill="#FFF"/>
<path d="M393.281 293.798C396.217 290.862 396.217 286.102 393.281 283.166C390.345 280.23 385.585 280.23 382.649 283.166C379.713 286.102 379.713 290.862 382.649 293.798C385.585 296.734 390.345 296.734 393.281 293.798Z" fill="#FFF"/>
<path d="M341.425 330.584C344.361 327.648 344.361 322.888 341.425 319.952C338.489 317.016 333.729 317.016 330.793 319.952C327.857 322.888 327.857 327.648 330.793 330.584C333.729 333.52 338.489 333.52 341.425 330.584Z" fill="#FFF"/>
<path d="M367.349 330.572C370.285 327.636 370.285 322.876 367.349 319.94C364.414 317.004 359.653 317.004 356.717 319.94C353.781 322.876 353.781 327.636 356.717 330.572C359.653 333.508 364.414 333.508 367.349 330.572Z" fill="#FFF"/>
<path d="M393.284 330.584C396.22 327.648 396.22 322.888 393.284 319.952C390.348 317.016 385.588 317.016 382.652 319.952C379.716 322.888 379.716 327.648 382.652 330.584C385.588 333.52 390.348 333.52 393.284 330.584Z" fill="#FFF"/>
<path d="M341.434 367.352C344.37 364.416 344.37 359.656 341.434 356.72C338.498 353.784 333.738 353.784 330.802 356.72C327.866 359.656 327.866 364.416 330.802 367.352C333.738 370.288 338.498 370.288 341.434 367.352Z" fill="#FFF"/>
<path d="M367.351 367.358C370.287 364.422 370.287 359.662 367.351 356.726C364.415 353.79 359.655 353.79 356.719 356.726C353.783 359.662 353.783 364.422 356.719 367.358C359.655 370.294 364.415 370.294 367.351 367.358Z" fill="#FFF"/>
<path d="M393.275 367.357C396.211 364.421 396.211 359.661 393.275 356.725C390.339 353.789 385.579 353.789 382.643 356.725C379.707 359.661 379.707 364.421 382.643 367.357C385.579 370.293 390.339 370.293 393.275 367.357Z" fill="#FFF"/>
<path d="M341.42 404.131C344.356 401.195 344.356 396.435 341.42 393.499C338.484 390.563 333.724 390.563 330.788 393.499C327.852 396.435 327.852 401.195 330.788 404.131C333.724 407.067 338.484 407.067 341.42 404.131Z" fill="#FFF"/>
<path d="M367.353 404.144C370.289 401.208 370.289 396.448 367.353 393.512C364.417 390.576 359.657 390.576 356.721 393.512C353.785 396.448 353.785 401.208 356.721 404.144C359.657 407.08 364.417 407.08 367.353 404.144Z" fill="#FFF"/>
<path d="M393.278 404.132C396.214 401.196 396.214 396.436 393.278 393.5C390.342 390.564 385.582 390.564 382.646 393.5C379.71 396.436 379.71 401.196 382.646 404.132C385.582 407.068 390.342 407.068 393.278 404.132Z" fill="#FFF"/>
<path d="M341.423 440.918C344.359 437.982 344.359 433.222 341.423 430.286C338.487 427.35 333.727 427.35 330.791 430.286C327.855 433.222 327.855 437.982 330.791 440.918C333.727 443.854 338.487 443.854 341.423 440.918Z" fill="#FFF"/>
<path d="M367.353 440.913C370.289 437.977 370.289 433.217 367.353 430.281C364.417 427.345 359.657 427.345 356.721 430.281C353.785 433.217 353.785 437.977 356.721 440.913C359.657 443.849 364.417 443.849 367.353 440.913Z" fill="#FFF"/>
<path d="M393.281 440.919C396.217 437.983 396.217 433.222 393.281 430.287C390.345 427.351 385.585 427.351 382.649 430.287C379.713 433.222 379.713 437.983 382.649 440.919C385.585 443.855 390.345 443.855 393.281 440.919Z" fill="#FFF"/>
<path d="M395.088 62.5074L328.991 62.5074C309.993 62.5074 292.133 69.9052 278.7 83.3381C265.268 96.771 257.87 114.631 257.87 133.628V590.449C257.87 609.446 265.268 627.306 278.7 640.739C292.133 654.172 309.993 661.57 328.989 661.57L395.087 661.57C414.085 661.569 431.944 654.172 445.377 640.739C458.81 627.305 466.208 609.445 466.208 590.449V133.628C466.208 114.632 458.81 96.7717 445.377 83.3381C431.944 69.9052 414.084 62.5074 395.088 62.5074ZM451.163 133.628L451.164 590.45C451.165 605.427 445.331 619.51 434.739 630.101C424.148 640.692 410.066 646.525 395.088 646.525L328.99 646.526C314.012 646.526 299.93 640.693 289.338 630.101C278.747 619.51 272.914 605.429 272.914 590.449L272.914 133.628C272.914 118.65 278.747 104.567 289.338 93.9758C299.929 83.3848 314.011 77.5518 328.989 77.5518L395.087 77.5511C410.065 77.5511 424.148 83.3848 434.739 93.9758C445.331 104.568 451.165 118.649 451.163 133.628Z" fill="#FFF"/>
<path d="M404.234 241.752H319.843C313.633 241.753 307.795 244.171 303.404 248.562C299.012 252.954 296.595 258.793 296.594 265.003L296.593 459.076C296.593 465.286 299.012 471.125 303.403 475.516C307.794 479.907 313.632 482.325 319.843 482.326H404.233C410.444 482.325 416.282 479.908 420.674 475.516C425.066 471.124 427.484 465.285 427.484 459.075L427.484 265.003C427.484 258.793 425.066 252.953 420.674 248.561C416.283 244.17 410.444 241.752 404.234 241.752ZM412.44 265.002V459.075C412.441 461.266 411.587 463.327 410.037 464.877C408.487 466.427 406.426 467.281 404.235 467.28H319.844C315.319 467.281 311.638 463.6 311.638 459.074L311.639 265.001C311.638 262.81 312.492 260.748 314.042 259.198C315.592 257.648 317.653 256.795 319.844 256.796H404.235C406.426 256.796 408.488 257.649 410.037 259.198C411.586 260.749 412.44 262.81 412.44 265.002Z" fill="#FFF"/>
<path d="M228.939 257.869L133.628 257.868C114.632 257.869 96.7718 265.267 83.3389 278.7C69.906 292.133 62.5082 309.993 62.5082 328.99V395.087C62.5082 414.084 69.906 431.945 83.3382 445.377C96.7704 458.809 114.631 466.207 133.627 466.207L230.356 466.207C232.434 466.207 234.314 465.365 235.675 464.004C237.036 462.643 237.878 460.762 237.878 458.685C237.878 454.532 234.511 451.164 230.356 451.163L133.628 451.163C118.65 451.164 104.567 445.33 93.9759 434.739C83.3849 424.148 77.5512 410.067 77.5519 395.087V328.989C77.5519 314.011 83.3856 299.928 93.9766 289.337C104.568 278.746 118.65 272.913 133.628 272.913L228.938 272.914C233.092 272.915 236.459 269.548 236.461 265.391C236.461 261.238 233.093 257.87 228.939 257.869Z" fill="#FFF"/>
<path d="M590.45 257.87L493.699 257.869C489.545 257.87 486.178 261.237 486.176 265.392C486.176 269.545 489.544 272.913 493.698 272.914L590.45 272.913C621.37 272.913 646.526 298.069 646.526 328.99V395.087C646.526 426.008 621.37 451.164 590.45 451.164L492.281 451.164C488.126 451.163 484.759 454.53 484.758 458.686C484.758 462.839 488.126 466.207 492.281 466.208L590.45 466.208C610.058 466.207 627.838 458.231 640.716 445.353C653.594 432.476 661.57 414.695 661.57 395.087V328.99C661.569 289.775 629.665 257.871 590.45 257.87Z" fill="#FFF"/>
</g>
<defs>
<clipPath id="clip0">
<rect width="512" height="512" fill="white" transform="translate(0 362.039) rotate(-45)"/>
</clipPath>
</defs>
</svg>
