<svg width="101" height="100" viewBox="0 0 101 100" fill="none" xmlns="http://www.w3.org/2000/svg">
<g clip-path="url(#clip0)">
<path d="M65.3545 60.7043C64.3795 60.7043 63.5087 60.0168 63.3128 59.0251C63.092 57.896 63.8253 56.8001 64.9545 56.5793L82.3753 53.1543C83.242 52.9835 83.6503 52.3876 83.817 52.0501C84.1212 51.4293 84.1087 50.7043 83.7878 50.0668C76.3628 35.3585 65.142 24.1376 50.4378 16.7126C49.7962 16.3918 49.0753 16.3835 48.4545 16.6835C48.1128 16.8501 47.5212 17.2585 47.3503 18.1251L43.9253 35.546C43.7003 36.671 42.6212 37.4085 41.4795 37.1876C40.3462 36.9668 39.6128 35.8668 39.8337 34.7376L43.2587 17.3168C43.6378 15.3918 44.8628 13.796 46.6253 12.9376C48.4337 12.0585 50.5087 12.0751 52.317 12.9918C67.8378 20.8251 79.6753 32.6668 87.5087 48.1876C88.4253 50.0001 88.442 52.071 87.5628 53.8751C86.7045 55.6335 85.1087 56.8626 83.1837 57.2418L65.7628 60.6668C65.6253 60.6918 65.4878 60.7043 65.3545 60.7043Z" fill="black"/>
<path d="M98.4163 29.1667C97.2663 29.1667 96.333 28.2333 96.333 27.0833C96.333 14.4458 86.0538 4.16667 73.4163 4.16667C72.2663 4.16667 71.333 3.23333 71.333 2.08333C71.333 0.933333 72.2663 0 73.4163 0C88.3497 0 100.5 12.15 100.5 27.0833C100.5 28.2333 99.5663 29.1667 98.4163 29.1667Z" fill="black"/>
<path d="M85.9163 29.1667C84.7663 29.1667 83.833 28.2333 83.833 27.0833C83.833 21.3417 79.158 16.6667 73.4163 16.6667C72.2663 16.6667 71.333 15.7333 71.333 14.5833C71.333 13.4333 72.2663 12.5 73.4163 12.5C81.458 12.5 87.9997 19.0417 87.9997 27.0833C87.9997 28.2333 87.0663 29.1667 85.9163 29.1667Z" fill="black"/>
<path d="M19.2502 91.6665C13.5085 91.6665 8.8335 86.9915 8.8335 81.2499C8.8335 79.0707 9.50016 76.9832 10.7627 75.2082L40.1835 33.9332C40.5377 33.4332 41.096 33.1165 41.7085 33.0665C42.321 33.0165 42.921 33.2374 43.3543 33.6707L66.8335 57.1499C67.2668 57.5832 67.4877 58.1874 67.4377 58.7957C67.3877 59.404 67.071 59.9624 66.571 60.3207L25.2918 89.7374C23.5168 90.9999 21.4293 91.6665 19.2502 91.6665ZM42.1502 38.3582L14.1543 77.6249C13.4002 78.6874 13.0002 79.9415 13.0002 81.2499C13.0002 84.6957 15.8043 87.4999 19.2502 87.4999C20.5585 87.4999 21.8127 87.0999 22.8752 86.3457L62.146 58.354L42.1502 38.3582Z" fill="black"/>
<path d="M2.5834 100C2.05006 100 1.51673 99.7959 1.1084 99.3918C0.295898 98.5793 0.295898 97.2584 1.1084 96.4459L11.5251 86.0293C12.3376 85.2168 13.6584 85.2168 14.4709 86.0293C15.2834 86.8418 15.2834 88.1626 14.4709 88.9751L4.05423 99.3918C3.65006 99.7959 3.11673 100 2.5834 100Z" fill="black"/>
<path d="M31.7501 62.5001C31.2167 62.5001 30.6834 62.296 30.2751 61.8918L26.1084 57.7251C25.2959 56.9126 25.2959 55.5918 26.1084 54.7793C26.9209 53.9668 28.2417 53.9668 29.0542 54.7793L33.2209 58.946C34.0334 59.7585 34.0334 61.0793 33.2209 61.8918C32.8167 62.296 32.2834 62.5001 31.7501 62.5001Z" fill="black"/>
</g>
<defs>
<clipPath id="clip0">
<rect width="100" height="100" fill="white" transform="translate(0.5)"/>
</clipPath>
</defs>
</svg>
