<svg id="reflex-hammer" width="51" height="50" viewBox="0 0 51 50" fill="none" xmlns="http://www.w3.org/2000/svg">
<path d="M43.6352 20.4662L42.7598 19.5904L43.1504 19.1998C43.2785 19.0716 43.3504 18.8978 43.3504 18.7166C43.3504 18.5353 43.2785 18.3615 43.1504 18.2333L38.6836 13.7642C38.553 13.6407 38.3801 13.5719 38.2004 13.5719C38.0207 13.5719 37.8478 13.6407 37.7172 13.7642L37.3266 14.1548L30.4981 7.32905C30.4346 7.26553 30.3593 7.21514 30.2764 7.18076C30.1935 7.14638 30.1046 7.12868 30.0148 7.12868C29.9251 7.12868 29.8362 7.14638 29.7533 7.18076C29.6704 7.21514 29.5951 7.26553 29.5316 7.32905L29.384 7.47632L29.1395 7.23179C28.8161 6.92152 28.384 6.75034 27.9359 6.75497C27.4877 6.75961 27.0593 6.93969 26.7424 7.25658C26.4255 7.57347 26.2454 8.00193 26.2408 8.45006C26.2361 8.89819 26.4073 9.33028 26.7176 9.65366L26.9617 9.8978L26.8141 10.0455C26.7505 10.1089 26.7002 10.1842 26.6658 10.2671C26.6314 10.35 26.6137 10.4389 26.6137 10.5287C26.6137 10.6184 26.6314 10.7073 26.6658 10.7902C26.7002 10.8731 26.7505 10.9484 26.8141 11.0119L31.5648 15.7634L22.4156 24.9123L22.1324 24.6294C22.0058 24.5027 21.8345 24.4307 21.6554 24.429C21.4762 24.4273 21.3036 24.4961 21.1746 24.6205L8.19258 37.1373C7.68106 37.6306 7.3286 38.2655 7.18043 38.9605C7.03225 39.6555 7.09512 40.379 7.36097 41.0381C7.62681 41.6971 8.08351 42.2617 8.67246 42.6594C9.26142 43.0571 9.95576 43.2697 10.6664 43.2701H10.7004C11.1743 43.2672 11.6428 43.1692 12.078 42.9818C12.5133 42.7945 12.9065 42.5216 13.2344 42.1794L25.75 29.1966C25.8743 29.0676 25.943 28.895 25.9413 28.7159C25.9396 28.5368 25.8677 28.3655 25.741 28.2388L25.4582 27.9556L33.732 19.6822L37.7164 23.6665C37.7798 23.7301 37.8552 23.7805 37.9381 23.8148C38.021 23.8492 38.1099 23.8669 38.1996 23.8669C38.2894 23.8669 38.3783 23.8492 38.4612 23.8148C38.5441 23.7805 38.6194 23.7301 38.6828 23.6665L39.0734 23.2759L39.9484 24.1509C40.1895 24.3965 40.4768 24.5918 40.7938 24.7257C41.1108 24.8596 41.4512 24.9293 41.7953 24.9309C42.1394 24.9325 42.4804 24.866 42.7986 24.735C43.1168 24.6041 43.4059 24.4114 43.6493 24.1681C43.8926 23.9249 44.0853 23.6358 44.2163 23.3176C44.3473 22.9994 44.414 22.6584 44.4124 22.3143C44.4109 21.9702 44.3412 21.6298 44.2074 21.3128C44.0736 20.9958 43.8783 20.7084 43.6328 20.4673L43.6352 20.4662ZM27.684 8.68764C27.6497 8.65613 27.6221 8.61799 27.6028 8.57553C27.5836 8.53307 27.5732 8.48717 27.5722 8.44057C27.5711 8.39398 27.5795 8.34765 27.5969 8.30439C27.6142 8.26113 27.6401 8.22182 27.673 8.18883C27.706 8.15583 27.7452 8.12983 27.7884 8.11239C27.8316 8.09495 27.8779 8.08643 27.9245 8.08734C27.9711 8.08826 28.0171 8.09858 28.0596 8.1177C28.1021 8.13681 28.1403 8.16433 28.1719 8.19858L28.4164 8.44311L27.9273 8.93179L27.684 8.68764ZM29.8672 8.92671L30.0148 8.77944L36.3586 15.1232L34.6082 16.8751L28.2641 10.5294L29.8672 8.92671ZM12.25 41.2314C12.0479 41.4425 11.8055 41.6109 11.5371 41.7265C11.2686 41.8421 10.9797 41.9026 10.6875 41.9044H10.6668C10.2287 41.9042 9.8006 41.773 9.43751 41.5278C9.07442 41.2826 8.79286 40.9345 8.62895 40.5282C8.46504 40.1219 8.42625 39.6759 8.51755 39.2474C8.60886 38.8189 8.8261 38.4274 9.14141 38.1232L21.6414 26.072L24.302 28.7326L12.25 41.2314ZM23.3828 25.8798L32.5313 16.7302L33.6406 17.8404L33.5168 17.9638L24.4922 26.9892L23.3828 25.8798ZM34.6996 18.7154L34.8004 18.6146L35.0914 18.3236L38.2 15.2142L41.7012 18.7154L38.2 22.2166L34.6996 18.7154ZM42.6684 23.1833C42.436 23.4153 42.1211 23.5455 41.7928 23.5455C41.4645 23.5455 41.1496 23.4153 40.9172 23.1833L40.0418 22.308L41.7926 20.5572L42.6684 21.4326C42.9001 21.6649 43.0303 21.9797 43.0304 22.3079C43.0305 22.6361 42.9004 22.9509 42.6688 23.1833H42.6684Z" fill="black"/>
</svg>
